<svg width="453" height="429" viewBox="0 0 453 429" fill="none" xmlns="http://www.w3.org/2000/svg">
<path d="M207.545 119.823L211.948 118.855C212.182 118.803 212.412 118.95 212.464 119.185L222.096 162.988C222.147 163.222 222 163.452 221.765 163.504L217.363 164.472C217.128 164.524 216.898 164.376 216.847 164.142L207.215 120.339C207.163 120.105 207.311 119.874 207.545 119.823Z" fill="#3F4B5B"/>
<path d="M23.2392 150.827L27.6416 149.859C27.8762 149.807 28.1064 149.954 28.158 150.189L34.1063 177.24C34.1578 177.474 34.0104 177.705 33.776 177.756L29.3736 178.724C29.1391 178.776 28.9088 178.629 28.8572 178.394L22.9089 151.343C22.8574 151.109 23.0048 150.878 23.2392 150.827Z" fill="#3F4B5B"/>
<path d="M31.2419 187.222L35.6443 186.254C35.8788 186.203 36.1091 186.35 36.1606 186.584L42.109 213.636C42.1605 213.87 42.0131 214.1 41.7787 214.152L37.3763 215.12C37.1417 215.171 36.9115 215.024 36.8599 214.79L30.9116 187.738C30.8601 187.504 31.0075 187.274 31.2419 187.222Z" fill="#3F4B5B"/>
<path d="M21.566 122.229L17.1635 123.197C16.9298 123.248 16.7819 123.479 16.8333 123.713L19.8348 137.363C19.8861 137.597 20.1173 137.745 20.3511 137.693L24.7535 136.725C24.9873 136.674 25.1352 136.443 25.0838 136.209L22.0823 122.559C22.0309 122.325 21.7997 122.178 21.566 122.229Z" fill="#3F4B5B"/>
<path d="M207.666 120.374L212.069 119.406C212.303 119.354 212.533 119.501 212.585 119.736L222.012 162.608C222.064 162.842 221.916 163.072 221.682 163.124L217.279 164.092C217.045 164.144 216.815 163.996 216.763 163.762L207.336 120.89C207.284 120.655 207.432 120.425 207.666 120.374Z" fill="url(#paint0_linear_0_1)"/>
<path d="M23.4067 151.367L27.8091 150.399C28.0436 150.347 28.2739 150.494 28.3254 150.729L34.0691 176.849C34.1206 177.084 33.9733 177.314 33.7388 177.366L29.3364 178.334C29.1019 178.385 28.8716 178.238 28.8201 178.004L23.0764 151.883C23.0249 151.649 23.1723 151.418 23.4067 151.367V151.367Z" fill="url(#paint1_linear_0_1)"/>
<path d="M31.3628 187.772L35.7652 186.804C35.9997 186.753 36.23 186.9 36.2815 187.134L42.0252 213.255C42.0767 213.489 41.9293 213.719 41.6949 213.771L37.2925 214.739C37.0579 214.79 36.8277 214.643 36.7761 214.409L31.0325 188.288C30.9809 188.054 31.1283 187.824 31.3628 187.772Z" fill="url(#paint2_linear_0_1)"/>
<path d="M21.6868 122.779L17.2844 123.747C17.0506 123.798 16.9027 124.029 16.9541 124.263L19.751 136.982C19.8023 137.216 20.0335 137.364 20.2673 137.312L24.6697 136.344C24.9035 136.293 25.0514 136.062 25 135.828L22.2031 123.109C22.1518 122.875 21.9206 122.727 21.6868 122.779Z" fill="url(#paint3_linear_0_1)"/>
<path d="M157.384 12.8252L30.3345 40.762C14.3554 44.2757 4.2484 60.0694 7.7598 76.0383L78.267 396.687C81.7784 412.656 97.5785 422.753 113.558 419.239L240.607 391.302C256.586 387.788 266.693 371.995 263.182 356.026L192.675 35.3775C189.163 19.4086 173.363 9.31158 157.384 12.8252Z" fill="#C8E1F8" stroke="#3F4B5B" stroke-width="0.999999" stroke-linecap="round" stroke-linejoin="round"/>
<g filter="url(#filter0_f_0_1)">
<path d="M30.556 41.7763C15.0716 45.1811 5.37061 60.3403 8.77332 75.8149L79.2808 396.464C82.6835 411.939 97.8486 421.629 113.333 418.225L240.386 390.287C255.87 386.882 265.571 371.724 262.169 356.249L191.661 35.5998C188.258 20.1252 173.093 10.4339 157.609 13.8387L30.556 41.7763Z" fill="#A0B8CE"/>
</g>
<path d="M146.446 14.9585L147.813 21.174L150.397 20.6058L149.03 14.3902L146.446 14.9585ZM9.38755 84.681L9.95542 87.2635L195.39 46.4883L194.823 43.9058L9.38755 84.681ZM75.696 386.235L76.2639 388.817L261.699 348.042L261.131 345.46L75.696 386.235ZM120.735 412.322L121.911 417.674L124.496 417.106L123.319 411.754L120.735 412.322Z" fill="#819ABB"/>
<path d="M111.296 25.3228L78.4072 32.5547L78.9829 35.1728L111.872 27.9408L111.296 25.3228Z" fill="black"/>
<path d="M31.3458 43.0397C16.2355 46.3623 6.74418 61.1938 10.0647 76.2946L80.2519 395.488C83.5723 410.588 98.4099 420.07 113.52 416.748L239.596 389.025C254.706 385.702 264.197 370.871 260.877 355.77L190.69 36.577C187.369 21.4763 172.532 11.9944 157.421 15.317L111.312 25.4561C111.025 25.5193 110.77 25.683 110.594 25.9175C110.417 26.1521 110.33 26.442 110.349 26.7349L110.361 26.7877L110.354 26.7892L79.8777 33.4906C79.7812 33.2035 79.582 32.9622 79.3183 32.813C79.0546 32.6638 78.745 32.6172 78.449 32.6822L31.3458 43.0397Z" fill="black" stroke="#434343" stroke-width="0.500001"/>
<path d="M108.924 25.9806L80.836 32.1569C80.173 32.3027 79.7536 32.958 79.8993 33.6206L80.182 34.9061C80.3277 35.5687 80.9833 35.9876 81.6463 35.8418L109.735 29.6655C110.398 29.5197 110.817 28.8644 110.671 28.2018L110.389 26.9164C110.243 26.2538 109.587 25.8348 108.924 25.9806Z" fill="black" stroke="#1A1A1A" stroke-width="0.500001" stroke-linecap="round" stroke-linejoin="round"/>
<path d="M81.7167 32.7538C81.1134 32.8864 80.7346 33.4783 80.8672 34.0812C80.9998 34.6842 81.5919 35.0626 82.1952 34.9299L108.854 29.0679C109.457 28.9353 109.836 28.3434 109.703 27.7405C109.571 27.1375 108.979 26.7591 108.375 26.8918L81.7167 32.7538Z" stroke="#292929" stroke-width="0.153809" stroke-linecap="round"/>
<g filter="url(#filter1_f_0_1)">
<path d="M109.704 27.7409C109.746 27.9325 109.669 28.1122 109.532 28.1423C109.395 28.1724 109.25 28.0415 109.208 27.8499C109.166 27.6583 109.243 27.4785 109.38 27.4484C109.516 27.4184 109.662 27.5493 109.704 27.7409Z" fill="white"/>
<path d="M80.8673 34.0813C80.9094 34.2729 81.0545 34.4038 81.1914 34.3737C81.3282 34.3437 81.405 34.1639 81.3628 33.9723C81.3207 33.7807 81.1756 33.6498 81.0388 33.6799C80.9019 33.71 80.8252 33.8897 80.8673 34.0813Z" fill="white"/>
</g>
<g clip-path="url(#clip0_0_1)">
<path d="M32.1494 49.3517C21.2104 51.7567 14.2911 62.5685 16.6947 73.5005L87.5268 395.627C89.9304 406.559 100.747 413.471 111.686 411.065L239.216 383.022C250.156 380.617 257.075 369.806 254.671 358.874L183.839 36.7473C181.435 25.8154 170.618 18.9035 159.679 21.3092L134.279 26.8944C131.965 27.4034 130.82 27.9058 131.627 31.5752C132.434 35.2445 131.518 41.9276 123.376 43.7178L74.504 54.4643C66.3624 56.2546 62.7276 50.5722 61.9207 46.9028C61.1139 43.2334 59.8641 43.2575 57.5493 43.7665L32.1494 49.3517Z" fill="white"/>
</g>
<path d="M57.5808 43.7598C59.8956 43.2508 61.1453 43.2267 61.9522 46.8961C62.759 50.5655 66.3938 56.2479 74.5355 54.4576L123.408 43.7111C131.549 41.9209 132.465 35.2378 131.658 31.5684C130.852 27.8991 131.996 27.3966 134.311 26.8876L57.5808 43.7598Z" fill="black"/>
<path d="M73.5564 48.4082C75.1985 48.0471 76.2372 46.424 75.8763 44.783C75.5155 43.1419 73.8918 42.1043 72.2497 42.4653C70.6076 42.8264 69.5689 44.4495 69.9297 46.0906C70.2906 47.7316 71.9143 48.7693 73.5564 48.4082Z" fill="#161616"/>
<path d="M73.306 47.2692C74.3189 47.0465 74.9596 46.0453 74.737 45.0331C74.5144 44.0209 73.5129 43.3808 72.5 43.6036C71.4871 43.8263 70.8465 44.8274 71.069 45.8396C71.2916 46.8519 72.2931 47.4919 73.306 47.2692Z" fill="#0A0D13"/>
<path d="M73.2102 46.8333C73.9819 46.6636 74.4701 45.9008 74.3005 45.1296C74.1309 44.3584 73.3678 43.8707 72.5961 44.0404C71.8243 44.2101 71.3362 44.9729 71.5058 45.7441C71.6754 46.5154 72.4385 47.003 73.2102 46.8333Z" fill="#091427"/>
<g filter="url(#filter2_f_0_1)">
<path fill-rule="evenodd" clip-rule="evenodd" d="M71.7358 44.7144C71.5739 44.7682 71.394 45.0728 71.4858 45.5734C71.5776 46.074 71.855 46.2962 71.9771 46.2694C72.0992 46.2426 72.446 45.4079 71.7357 44.7144L71.7358 44.7144Z" fill="#235A91" fill-opacity="0.556075"/>
</g>
<g filter="url(#filter3_f_0_1)">
<path fill-rule="evenodd" clip-rule="evenodd" d="M72.8874 44.2788C72.6437 44.4167 72.6863 44.8497 72.7493 45.0886C72.8124 45.3275 73.2934 45.8853 73.6746 45.654C74.0558 45.4227 74.0113 44.8848 73.7631 44.5708C73.5149 44.2567 73.148 44.0741 72.8874 44.2788V44.2788Z" fill="#235A91" fill-opacity="0.556075"/>
</g>
<path d="M414.247 166.254L418.556 167.579C418.785 167.65 418.913 167.891 418.843 168.121L405.66 210.989C405.589 211.218 405.348 211.346 405.118 211.275L400.81 209.95C400.58 209.88 400.452 209.638 400.523 209.409L413.706 166.541C413.776 166.312 414.018 166.184 414.247 166.254Z" fill="#3F4B5B"/>
<path d="M238.563 102.496L242.872 103.821C243.101 103.891 243.229 104.133 243.159 104.362L235.017 130.836C234.947 131.065 234.705 131.193 234.476 131.123L230.167 129.798C229.938 129.727 229.81 129.486 229.88 129.256L238.022 102.782C238.092 102.553 238.334 102.425 238.563 102.496Z" fill="#3F4B5B"/>
<path d="M227.61 138.114L231.918 139.439C232.148 139.509 232.276 139.751 232.205 139.98L224.064 166.454C223.993 166.684 223.752 166.811 223.522 166.741L219.214 165.416C218.984 165.345 218.856 165.104 218.927 164.874L227.068 138.4C227.139 138.171 227.38 138.043 227.61 138.114Z" fill="#3F4B5B"/>
<path d="M251.187 76.7805L246.879 75.4555C246.65 75.3852 246.408 75.5135 246.337 75.7421L242.229 89.1009C242.159 89.3296 242.287 89.572 242.516 89.6424L246.825 90.9673C247.053 91.0377 247.296 90.9094 247.366 90.6807L251.474 77.3219C251.545 77.0932 251.416 76.8508 251.187 76.7805Z" fill="#3F4B5B"/>
<path d="M414.082 166.791L418.39 168.116C418.62 168.187 418.748 168.428 418.677 168.658L405.774 210.615C405.704 210.844 405.462 210.972 405.233 210.902L400.924 209.577C400.695 209.506 400.567 209.265 400.637 209.035L413.54 167.078C413.611 166.849 413.852 166.721 414.082 166.791Z" fill="url(#paint4_linear_0_1)"/>
<path d="M238.444 103.047L242.752 104.372C242.982 104.443 243.11 104.684 243.039 104.914L235.178 130.477C235.107 130.706 234.865 130.834 234.636 130.764L230.328 129.439C230.098 129.368 229.97 129.127 230.041 128.897L237.902 103.334C237.973 103.105 238.214 102.977 238.444 103.047V103.047Z" fill="url(#paint5_linear_0_1)"/>
<path d="M227.444 138.652L231.753 139.977C231.982 140.047 232.11 140.289 232.04 140.518L224.178 166.081C224.108 166.311 223.866 166.439 223.637 166.368L219.328 165.043C219.099 164.972 218.971 164.731 219.041 164.502L226.903 138.938C226.973 138.709 227.215 138.581 227.444 138.652Z" fill="url(#paint6_linear_0_1)"/>
<path d="M251.022 77.3186L246.713 75.9936C246.485 75.9232 246.242 76.0516 246.172 76.2802L242.344 88.7282C242.273 88.9569 242.402 89.1992 242.631 89.2696L246.939 90.5946C247.168 90.6649 247.41 90.5366 247.481 90.308L251.309 77.86C251.379 77.6313 251.251 77.3889 251.022 77.3186Z" fill="url(#paint7_linear_0_1)"/>
<path d="M423.268 48.4262L298.93 10.1891C283.292 5.37998 266.719 14.1505 261.913 29.7786L165.41 343.584C160.604 359.212 169.385 375.78 185.023 380.589L309.361 418.826C324.999 423.635 341.572 414.864 346.378 399.236L442.881 85.431C447.687 69.8029 438.906 53.2353 423.268 48.4262Z" fill="#C8E1F8" stroke="#3F4B5B" stroke-width="0.999999" stroke-linecap="round" stroke-linejoin="round"/>
<g filter="url(#filter4_f_0_1)">
<path d="M298.623 11.1805C283.469 6.52023 267.562 14.9384 262.905 30.0828L166.401 343.889C161.744 359.034 170.173 374.935 185.327 379.595L309.668 417.833C324.822 422.493 340.729 414.076 345.386 398.932L441.89 85.1252C446.547 69.9808 438.119 54.0788 422.965 49.4185L298.623 11.1805Z" fill="#A0B8CE"/>
</g>
<path d="M412.698 44.8967L410.827 50.9796L413.356 51.7573L415.227 45.6744L412.698 44.8967ZM259.074 38.1017L258.297 40.6292L439.775 96.4381L440.552 93.9107L259.074 38.1017ZM168.318 333.22L167.541 335.747L349.018 391.556L349.796 389.029L168.318 333.22ZM194.675 378.101L193.065 383.339L195.594 384.117L197.204 378.879L194.675 378.101Z" fill="#819ABB"/>
<path d="M377 36.6122L344.813 26.7139L344.025 29.2761L376.212 39.1744L377 36.6122Z" fill="black"/>
<path d="M298.689 12.6686C283.901 8.12099 268.338 16.3572 263.793 31.1357L167.728 343.517C163.183 358.295 171.429 373.854 186.217 378.401L309.602 416.345C324.39 420.893 339.953 412.657 344.498 397.878L440.563 85.4971C445.108 70.7186 436.862 55.1603 422.074 50.6126L376.948 36.7353C376.667 36.6491 376.365 36.6662 376.096 36.7834C375.827 36.9007 375.609 37.1104 375.481 37.3746L375.465 37.4262L375.458 37.4241L345.633 28.252C345.69 27.9546 345.635 27.6464 345.479 27.3867C345.323 27.127 345.077 26.9341 344.787 26.8449L298.689 12.6686Z" fill="black" stroke="#434343" stroke-width="0.500001"/>
<path d="M374.612 36.017L347.123 27.5635C346.474 27.3639 345.787 27.7278 345.587 28.3763L345.2 29.6343C345.001 30.2827 345.365 30.9702 346.014 31.1697L373.503 39.6232C374.152 39.8228 374.839 39.4589 375.039 38.8104L375.426 37.5524C375.625 36.9039 375.261 36.2165 374.612 36.017Z" fill="black" stroke="#1A1A1A" stroke-width="0.500001" stroke-linecap="round" stroke-linejoin="round"/>
<path d="M347.596 28.5162C347.005 28.3346 346.384 28.6633 346.203 29.2533C346.021 29.8434 346.35 30.4643 346.941 30.6459L373.03 38.6691C373.621 38.8507 374.242 38.522 374.423 37.932C374.605 37.3419 374.276 36.721 373.685 36.5394L347.596 28.5162Z" stroke="#292929" stroke-width="0.153809" stroke-linecap="round"/>
<g filter="url(#filter5_f_0_1)">
<path d="M374.424 37.932C374.366 38.1195 374.211 38.2382 374.077 38.197C373.943 38.1558 373.881 37.9704 373.939 37.7829C373.996 37.5954 374.152 37.4767 374.285 37.5179C374.419 37.5591 374.481 37.7445 374.424 37.932Z" fill="white"/>
<path d="M346.203 29.2536C346.145 29.4411 346.207 29.6265 346.341 29.6677C346.475 29.7089 346.63 29.5902 346.688 29.4027C346.745 29.2152 346.684 29.0298 346.55 28.9886C346.416 28.9474 346.26 29.0661 346.203 29.2536Z" fill="white"/>
</g>
<g clip-path="url(#clip1_0_1)">
<path d="M296.28 18.5588C285.575 15.2663 274.229 21.2702 270.939 31.9688L173.991 347.22C170.7 357.919 176.712 369.261 187.418 372.553L312.227 410.934C322.932 414.227 334.278 408.224 337.568 397.525L434.516 82.2728C437.806 71.5741 431.794 60.2324 421.089 56.9406L396.231 49.2961C393.965 48.5995 392.722 48.4732 391.618 52.0643C390.513 55.6554 386.426 61.0214 378.458 58.5711L330.628 43.8623C322.661 41.412 322.295 34.6765 323.399 31.0854C324.503 27.4943 323.404 26.8999 321.138 26.2033L296.28 18.5588Z" fill="white"/>
</g>
<path d="M321.169 26.2129C323.434 26.9096 324.534 27.5039 323.43 31.095C322.325 34.6861 322.691 41.4216 330.659 43.8719L378.488 58.5807C386.456 61.031 390.544 55.665 391.648 52.0739C392.753 48.4829 393.996 48.6091 396.261 49.3057L321.169 26.2129Z" fill="black"/>
<path d="M332.786 38.1239C334.393 38.6181 336.096 37.7168 336.59 36.1108C337.084 34.5047 336.181 32.8021 334.574 32.3079C332.967 31.8137 331.264 32.715 330.77 34.3211C330.276 35.9271 331.179 37.6297 332.786 38.1239Z" fill="#161616"/>
<path d="M333.129 37.0095C334.12 37.3143 335.17 36.7584 335.475 35.7677C335.78 34.7771 335.223 33.7269 334.232 33.4221C333.241 33.1172 332.19 33.6732 331.885 34.6638C331.581 35.6544 332.137 36.7046 333.129 37.0095Z" fill="#0A0D13"/>
<path d="M333.26 36.5826C334.015 36.8148 334.816 36.3912 335.048 35.6365C335.28 34.8817 334.856 34.0815 334.1 33.8493C333.345 33.617 332.545 34.0406 332.313 34.7954C332.081 35.5501 332.505 36.3503 333.26 36.5826Z" fill="#091427"/>
<g filter="url(#filter6_f_0_1)">
<path fill-rule="evenodd" clip-rule="evenodd" d="M333.02 34.012C332.853 33.9792 332.546 34.1557 332.38 34.6366C332.213 35.1176 332.345 35.4476 332.464 35.4843C332.584 35.5211 333.297 34.9654 333.02 34.012L333.02 34.012Z" fill="#235A91" fill-opacity="0.556075"/>
</g>
<g filter="url(#filter7_f_0_1)">
<path fill-rule="evenodd" clip-rule="evenodd" d="M334.237 34.2003C333.957 34.2003 333.781 34.5981 333.718 34.8371C333.655 35.0761 333.799 35.7984 334.245 35.7848C334.691 35.7712 334.917 35.2811 334.855 34.8856C334.794 34.49 334.565 34.1504 334.237 34.2003V34.2003Z" fill="#235A91" fill-opacity="0.556075"/>
</g>
<defs>
<filter id="filter0_f_0_1" x="6.1567" y="11.2212" width="258.629" height="409.621" filterUnits="userSpaceOnUse" color-interpolation-filters="sRGB">
<feFlood flood-opacity="0" result="BackgroundImageFix"/>
<feBlend mode="normal" in="SourceGraphic" in2="BackgroundImageFix" result="shape"/>
<feGaussianBlur stdDeviation="0.968526" result="effect1_foregroundBlur_0_1"/>
</filter>
<filter id="filter1_f_0_1" x="77.3451" y="23.9337" width="35.8806" height="13.9548" filterUnits="userSpaceOnUse" color-interpolation-filters="sRGB">
<feFlood flood-opacity="0" result="BackgroundImageFix"/>
<feBlend mode="normal" in="SourceGraphic" in2="BackgroundImageFix" result="shape"/>
<feGaussianBlur stdDeviation="1.7553" result="effect1_foregroundBlur_0_1"/>
</filter>
<filter id="filter2_f_0_1" x="71.2581" y="44.512" width="1.11444" height="1.96234" filterUnits="userSpaceOnUse" color-interpolation-filters="sRGB">
<feFlood flood-opacity="0" result="BackgroundImageFix"/>
<feBlend mode="normal" in="SourceGraphic" in2="BackgroundImageFix" result="shape"/>
<feGaussianBlur stdDeviation="0.101426" result="effect1_foregroundBlur_0_1"/>
</filter>
<filter id="filter3_f_0_1" x="72.4976" y="43.9895" width="1.66059" height="1.9223" filterUnits="userSpaceOnUse" color-interpolation-filters="sRGB">
<feFlood flood-opacity="0" result="BackgroundImageFix"/>
<feBlend mode="normal" in="SourceGraphic" in2="BackgroundImageFix" result="shape"/>
<feGaussianBlur stdDeviation="0.101426" result="effect1_foregroundBlur_0_1"/>
</filter>
<filter id="filter4_f_0_1" x="163.183" y="7.95943" width="281.926" height="413.095" filterUnits="userSpaceOnUse" color-interpolation-filters="sRGB">
<feFlood flood-opacity="0" result="BackgroundImageFix"/>
<feBlend mode="normal" in="SourceGraphic" in2="BackgroundImageFix" result="shape"/>
<feGaussianBlur stdDeviation="0.968526" result="effect1_foregroundBlur_0_1"/>
</filter>
<filter id="filter5_f_0_1" x="342.671" y="25.4699" width="35.2851" height="16.2458" filterUnits="userSpaceOnUse" color-interpolation-filters="sRGB">
<feFlood flood-opacity="0" result="BackgroundImageFix"/>
<feBlend mode="normal" in="SourceGraphic" in2="BackgroundImageFix" result="shape"/>
<feGaussianBlur stdDeviation="1.7553" result="effect1_foregroundBlur_0_1"/>
</filter>
<filter id="filter6_f_0_1" x="332.098" y="33.805" width="1.18793" height="1.88422" filterUnits="userSpaceOnUse" color-interpolation-filters="sRGB">
<feFlood flood-opacity="0" result="BackgroundImageFix"/>
<feBlend mode="normal" in="SourceGraphic" in2="BackgroundImageFix" result="shape"/>
<feGaussianBlur stdDeviation="0.101426" result="effect1_foregroundBlur_0_1"/>
</filter>
<filter id="filter7_f_0_1" x="333.501" y="33.9925" width="1.56708" height="1.99555" filterUnits="userSpaceOnUse" color-interpolation-filters="sRGB">
<feFlood flood-opacity="0" result="BackgroundImageFix"/>
<feBlend mode="normal" in="SourceGraphic" in2="BackgroundImageFix" result="shape"/>
<feGaussianBlur stdDeviation="0.101426" result="effect1_foregroundBlur_0_1"/>
</filter>
<linearGradient id="paint0_linear_0_1" x1="212.492" y1="119.313" x2="222.109" y2="163.051" gradientUnits="userSpaceOnUse">
<stop stop-color="#81AACE"/>
<stop offset="0.1" stop-color="#B9D2E8"/>
<stop offset="0.9" stop-color="#B9D2E8"/>
<stop offset="1" stop-color="#81AACE"/>
</linearGradient>
<linearGradient id="paint1_linear_0_1" x1="28.2324" y1="150.306" x2="34.1621" y2="177.273" gradientUnits="userSpaceOnUse">
<stop stop-color="#81AACE"/>
<stop offset="0.1" stop-color="#B9D2E8"/>
<stop offset="0.9" stop-color="#B9D2E8"/>
<stop offset="1" stop-color="#81AACE"/>
</linearGradient>
<linearGradient id="paint2_linear_0_1" x1="36.1885" y1="186.711" x2="42.1182" y2="213.678" gradientUnits="userSpaceOnUse">
<stop stop-color="#81AACE"/>
<stop offset="0.1" stop-color="#B9D2E8"/>
<stop offset="0.9" stop-color="#B9D2E8"/>
<stop offset="1" stop-color="#81AACE"/>
</linearGradient>
<linearGradient id="paint3_linear_0_1" x1="22.1101" y1="122.686" x2="25.093" y2="136.251" gradientUnits="userSpaceOnUse">
<stop stop-color="#81AACE"/>
<stop offset="0.1" stop-color="#B9D2E8"/>
<stop offset="0.9" stop-color="#B9D2E8"/>
<stop offset="1" stop-color="#81AACE"/>
</linearGradient>
<linearGradient id="paint4_linear_0_1" x1="418.804" y1="168.244" x2="405.641" y2="211.049" gradientUnits="userSpaceOnUse">
<stop stop-color="#81AACE"/>
<stop offset="0.1" stop-color="#B9D2E8"/>
<stop offset="0.9" stop-color="#B9D2E8"/>
<stop offset="1" stop-color="#81AACE"/>
</linearGradient>
<linearGradient id="paint5_linear_0_1" x1="243.166" y1="104.5" x2="235.05" y2="130.891" gradientUnits="userSpaceOnUse">
<stop stop-color="#81AACE"/>
<stop offset="0.1" stop-color="#B9D2E8"/>
<stop offset="0.9" stop-color="#B9D2E8"/>
<stop offset="1" stop-color="#81AACE"/>
</linearGradient>
<linearGradient id="paint6_linear_0_1" x1="232.167" y1="140.104" x2="224.051" y2="166.495" gradientUnits="userSpaceOnUse">
<stop stop-color="#81AACE"/>
<stop offset="0.1" stop-color="#B9D2E8"/>
<stop offset="0.9" stop-color="#B9D2E8"/>
<stop offset="1" stop-color="#81AACE"/>
</linearGradient>
<linearGradient id="paint7_linear_0_1" x1="251.436" y1="77.446" x2="247.353" y2="90.722" gradientUnits="userSpaceOnUse">
<stop stop-color="#81AACE"/>
<stop offset="0.1" stop-color="#B9D2E8"/>
<stop offset="0.9" stop-color="#B9D2E8"/>
<stop offset="1" stop-color="#81AACE"/>
</linearGradient>
<clipPath id="clip0_0_1">
<rect x="12.3423" y="53.707" width="171.137" height="370.355" rx="38" transform="rotate(-12.4014 12.3423 53.707)" fill="white"/>
</clipPath>
<clipPath id="clip1_0_1">
<rect x="276.896" y="12.5977" width="171.137" height="370.355" rx="38" transform="rotate(17.094 276.896 12.5977)" fill="white"/>
</clipPath>
</defs>
</svg>
