<svg width="113" height="35" viewBox="0 0 113 35" fill="none" xmlns="http://www.w3.org/2000/svg">
<path d="M17.5737 1.79492C15.5423 1.79492 13.5306 2.20119 11.6538 2.9904C9.77693 3.77969 8.07166 4.93649 6.63512 6.39482C5.19867 7.85324 4.05924 9.58449 3.28178 11.4899C2.50442 13.3954 2.10425 15.4377 2.10425 17.5C2.10425 19.5624 2.50442 21.6047 3.28178 23.5102C4.05924 25.4156 5.19867 27.1469 6.63512 28.6053C8.07166 30.0636 9.77693 31.2204 11.6538 32.0097C13.5306 32.7989 15.5423 33.2052 17.5737 33.2052V25.3526C16.5579 25.3526 15.5522 25.1495 14.6137 24.7548C13.6753 24.3602 12.8226 23.7818 12.1044 23.0527C11.3862 22.3235 10.8165 21.4578 10.4278 20.5051C10.039 19.5524 9.83898 18.5313 9.83898 17.5C9.83898 16.4688 10.039 15.4477 10.4278 14.495C10.8165 13.5423 11.3862 12.6766 12.1044 11.9474C12.8226 11.2183 13.6753 10.6399 14.6137 10.2453C15.5522 9.85057 16.5579 9.64749 17.5737 9.64749V1.79492Z" fill="#0F52FF"/>
<path d="M17.5739 22.7347C20.4218 22.7347 22.7304 20.3909 22.7304 17.4997C22.7304 14.6084 20.4218 12.2646 17.5739 12.2646C14.7261 12.2646 12.4175 14.6084 12.4175 17.4997C12.4175 20.3909 14.7261 22.7347 17.5739 22.7347Z" fill="#0F52FF"/>
<path d="M2.10425 17.5C2.10425 19.5624 2.50442 21.6047 3.28178 23.5101C4.05924 25.4156 5.19867 27.1468 6.63512 28.6052C8.07166 30.0636 9.77693 31.2204 11.6538 32.0097C13.5306 32.7989 15.5423 33.2051 17.5737 33.2051C19.6052 33.2051 21.6168 32.7989 23.4937 32.0097C25.3705 31.2204 27.0758 30.0636 28.5123 28.6052C29.9488 27.1468 31.0882 25.4156 31.8657 23.5101C32.643 21.6047 33.0432 19.5624 33.0432 17.5H25.3085C25.3085 18.5312 25.1084 19.5523 24.7196 20.5051C24.331 21.4578 23.7612 22.3234 23.043 23.0526C22.3248 23.7818 21.4721 24.3602 20.5337 24.7548C19.5953 25.1495 18.5895 25.3526 17.5737 25.3526C16.5579 25.3526 15.5522 25.1495 14.6137 24.7548C13.6753 24.3602 12.8226 23.7818 12.1044 23.0526C11.3862 22.3234 10.8165 21.4578 10.4278 20.5051C10.039 19.5523 9.83898 18.5312 9.83898 17.5H2.10425Z" fill="#5BD0F4"/>
<path d="M22.7302 17.4998C22.7302 16.1113 22.187 14.7798 21.22 13.798C20.2529 12.8162 18.9414 12.2646 17.5738 12.2646C16.2062 12.2646 14.8946 12.8162 13.9276 13.798C12.9605 14.7798 12.4172 16.1113 12.4172 17.4998H17.5738H22.7302Z" fill="#5BD0F4"/>
<path d="M41.1225 11.5996H39.2012V22.4361H41.1225V11.5996Z" fill="#0F52FF"/>
<path d="M42.377 18.597C42.377 21.1049 44.0848 22.6529 46.3416 22.6529C48.5983 22.6529 50.3062 21.1049 50.3062 18.597C50.3062 16.0891 48.5983 14.541 46.3416 14.541C44.0848 14.541 42.377 16.0891 42.377 18.597ZM44.2983 18.597C44.2983 17.1108 45.1522 16.2439 46.3416 16.2439C47.5309 16.2439 48.3849 17.1108 48.3849 18.597C48.3849 20.0831 47.5309 20.9501 46.3416 20.9501C45.1522 20.9501 44.2983 20.0831 44.2983 18.597Z" fill="#0F52FF"/>
<path d="M57.1722 14.7577V15.7949H57.0197C56.5622 15.1293 55.8303 14.541 54.5189 14.541C52.7196 14.541 51.1033 16.0891 51.1033 18.4731C51.1033 20.8572 52.7196 22.4052 54.5189 22.4052C55.8303 22.4052 56.5622 21.8015 56.9892 21.1977H57.1417V21.9408C57.1417 23.427 56.2878 24.1081 55.0374 24.1081C53.787 24.1081 53.1466 23.427 52.8873 22.5445L51.1643 23.3031C51.5607 24.4641 52.7196 25.7491 55.0679 25.7491C57.4771 25.7491 59.063 24.4641 59.063 21.9872V14.7577H57.1722ZM55.0984 20.7333C53.909 20.7333 53.0246 19.8664 53.0246 18.4731C53.0246 17.0799 53.909 16.2129 55.0984 16.2129C56.2878 16.2129 57.1722 17.0799 57.1722 18.4731C57.1722 19.8664 56.2878 20.7333 55.0984 20.7333Z" fill="#0F52FF"/>
<path d="M60.3059 18.597C60.3059 21.1049 62.0137 22.6529 64.2705 22.6529C66.5273 22.6529 68.235 21.1049 68.235 18.597C68.235 16.0891 66.5273 14.541 64.2705 14.541C62.0137 14.541 60.3059 16.0891 60.3059 18.597ZM62.2272 18.597C62.2272 17.1108 63.0811 16.2439 64.2705 16.2439C65.4599 16.2439 66.3138 17.1108 66.3138 18.597C66.3138 20.0831 65.4599 20.9501 64.2705 20.9501C63.0811 20.9501 62.2272 20.0831 62.2272 18.597Z" fill="#0F52FF"/>
<path d="M69.7432 12.5286C69.7432 13.3182 70.3381 13.86 71.1009 13.86C71.8629 13.86 72.4578 13.3182 72.4578 12.5286C72.4578 11.7391 71.8629 11.1973 71.1009 11.1973C70.3381 11.1973 69.7432 11.7391 69.7432 12.5286ZM72.0609 14.7578H70.1401V22.4363H72.0609V14.7578Z" fill="#5BD0F4"/>
<path d="M73.7732 25.5324H75.6949V21.4454H75.847C76.2739 22.0647 77.0059 22.6529 78.3177 22.6529C80.1166 22.6529 81.7333 21.1049 81.7333 18.597C81.7333 16.0891 80.1166 14.541 78.3177 14.541C77.0059 14.541 76.2739 15.1293 75.8169 15.795H75.664V14.7577H73.7732V25.5324ZM77.7378 20.981C76.5489 20.981 75.664 20.1141 75.664 18.597C75.664 17.0799 76.5489 16.2129 77.7378 16.2129C78.9276 16.2129 79.8116 17.0799 79.8116 18.597C79.8116 20.1141 78.9276 20.981 77.7378 20.981Z" fill="#5BD0F4"/>
<path d="M82.854 16.9096C82.854 18.4267 84.1039 18.984 85.6898 19.2937L86.0867 19.371C87.0317 19.5568 87.4586 19.789 87.4586 20.2844C87.4586 20.7798 87.0317 21.1668 86.1477 21.1668C85.2628 21.1668 84.5468 20.7952 84.3479 19.6806L82.5791 20.1451C82.839 21.7551 84.1649 22.6529 86.1477 22.6529C88.0685 22.6529 89.3194 21.7396 89.3194 20.1296C89.3194 18.5195 88.0385 18.0862 86.3307 17.7456L85.9338 17.6681C85.1408 17.5133 84.7139 17.2966 84.7139 16.7858C84.7139 16.3213 85.1108 16.0272 85.8427 16.0272C86.5746 16.0272 87.0926 16.3368 87.2756 17.1727L89.0144 16.631C88.6484 15.3925 87.5355 14.541 85.8427 14.541C84.043 14.541 82.854 15.3925 82.854 16.9096Z" fill="#5BD0F4"/>
<path d="M97.9496 22.4353V14.7568H96.0288V18.7199C96.0288 20.1441 95.3428 20.9801 94.168 20.9801C93.1311 20.9801 92.5521 20.4074 92.5521 19.2463V14.7568H90.6304V19.3391C90.6304 21.2433 91.8052 22.5591 93.574 22.5591C94.9609 22.5591 95.6018 21.9399 95.9068 21.2897H96.0588V22.4353H97.9496Z" fill="#5BD0F4"/>
<path d="M99.6538 14.7576V22.4361H101.576V17.8538C101.576 16.8011 102.064 16.2128 102.947 16.2128C103.71 16.2128 104.167 16.6463 104.167 17.4823V22.4361H106.089V17.8538C106.089 16.8011 106.577 16.2128 107.461 16.2128C108.224 16.2128 108.681 16.6463 108.681 17.4823V22.4361H110.603V17.3894C110.603 15.5317 109.474 14.6338 108.071 14.6338C106.836 14.6338 106.272 15.1911 105.906 15.8413H105.753C105.402 15.1137 104.777 14.6338 103.679 14.6338C102.582 14.6338 101.987 15.1292 101.698 15.7174H101.545V14.7576H99.6538Z" fill="#5BD0F4"/>
</svg>
