<svg width="288" height="35" viewBox="0 0 288 35" fill="none" xmlns="http://www.w3.org/2000/svg">
<path d="M143.257 30.1622H133.589V4.94741H143.257V30.1622ZM134.534 29.2411H142.313V5.86846H134.534V29.2411ZM156.708 30.1622H147.235V4.94741H167.027C169.862 4.72341 172.686 5.49999 174.984 7.13583C175.973 8.01877 176.74 9.11276 177.224 10.3324C177.708 11.5521 177.897 12.8645 177.776 14.1671C177.917 16.4181 177.183 18.6383 175.72 20.3843C173.988 22.3222 171.107 23.3206 167.157 23.3556C166.162 23.3814 158.706 23.3556 156.714 23.3556L156.708 30.1622ZM148.174 29.2411H155.764V22.4253H156.238C156.334 22.4253 166.015 22.4548 167.134 22.4253C170.814 22.394 173.46 21.5043 175.006 19.7671C176.309 18.1875 176.956 16.1882 176.819 14.1653C176.935 12.9981 176.774 11.8205 176.348 10.7238C175.923 9.62708 175.244 8.64078 174.364 7.84136C172.234 6.34944 169.627 5.64912 167.014 5.86662H148.179L148.174 29.2411ZM165.022 17.6911H155.7V10.8274H165.084C165.749 10.7377 166.427 10.8135 167.054 11.0476C167.681 11.2817 168.238 11.6666 168.671 12.1666C169.065 12.8057 169.251 13.5463 169.204 14.2906C169.239 14.9815 169.086 15.6693 168.76 16.2837C168.312 16.8104 167.733 17.2157 167.079 17.4609C166.424 17.7061 165.715 17.7828 165.022 17.6837V17.6911ZM156.644 16.77H165.022C166.57 16.77 167.529 16.455 167.954 15.8066C168.188 15.3353 168.294 14.8133 168.262 14.2906C168.303 13.7417 168.181 13.1929 167.91 12.71L167.899 12.6935C167.45 12.0487 166.557 11.7485 165.084 11.7485H156.644V16.77ZM195.006 30.5343C186.528 30.5343 181.467 28.4803 179.54 24.2564C179.224 23.4405 179.01 22.5907 178.901 21.7253L178.818 21.1948H188.905L188.971 21.5816C189.049 21.9744 189.22 22.3441 189.469 22.6611C189.868 23.1308 191.197 23.9193 195.608 23.9193C200.91 23.9193 200.91 23.0111 200.91 22.5229C200.91 21.6995 200.296 21.4177 195.972 20.9682L195.151 20.8927C193.523 20.7435 191.465 20.5537 190.525 20.4745C182.595 19.7745 179.054 17.3706 179.054 12.6824C179.054 7.75847 185.079 4.57715 194.405 4.57715C202.012 4.57715 206.914 6.53346 208.97 10.3964C209.458 11.2949 209.786 12.2679 209.939 13.2737L210.005 13.7914H199.907L199.866 13.375C199.826 13.0497 199.684 12.7445 199.458 12.5019C199.08 12.0082 197.887 11.1921 194.182 11.1921C189.634 11.1921 189.007 11.7595 189.007 12.3711C189.007 13.1871 190.444 13.4764 195.049 13.9571C196.969 14.11 200.056 14.4195 201.114 14.5448C207.762 15.2485 210.728 17.5935 210.728 22.1508C210.73 25.9732 208.002 30.5343 195.006 30.5343ZM179.921 22.1158C180.016 22.7234 180.178 23.3187 180.406 23.8916C182.162 27.7398 186.939 29.6132 195.006 29.6132C201.75 29.6132 209.792 28.3237 209.792 22.1508C209.792 18.1111 207.167 16.1106 201.014 15.4603C199.956 15.335 196.888 15.0274 194.972 14.8727C190.062 14.3532 188.067 14.0769 188.067 12.3711C188.067 10.6064 190.217 10.2711 194.186 10.2711C197.322 10.2711 199.348 10.8237 200.207 11.9382C200.442 12.2128 200.619 12.5294 200.729 12.8703H208.912C208.748 12.1579 208.487 11.4697 208.138 10.8237C206.25 7.28873 201.637 5.4982 194.409 5.4982C185.657 5.4982 180.002 8.31847 180.002 12.6824C180.002 16.8456 183.176 18.9014 190.612 19.5571C191.556 19.6364 193.612 19.8261 195.243 19.9772L196.07 20.0527C200.087 20.4653 201.858 20.7232 201.858 22.5229C201.858 24.4608 199.567 24.8403 195.612 24.8403C191.952 24.8403 189.641 24.3043 188.748 23.2487C188.473 22.9122 188.265 22.5277 188.136 22.1158H179.921ZM228.666 30.5029C218.81 30.5029 213.372 26.6143 213.372 19.5516V4.94741H222.911V19.5516C222.911 21.974 225.133 23.3629 229.006 23.3629C232.706 23.3629 235.004 21.9132 235.004 19.5829V4.94741H244.445V20.3253C244.454 26.7929 238.698 30.5029 228.66 30.5029H228.666ZM214.316 5.86846V19.5516C214.316 28.2795 223.3 29.5819 228.666 29.5819C234.213 29.5819 243.516 28.379 243.516 20.3253V5.86846H235.963V19.5829C235.963 22.4382 233.237 24.284 229.021 24.284C224.614 24.284 221.982 22.5156 221.982 19.5516V5.86846H214.316ZM284.451 30.1622H275.449V18.7779L270.343 30.1622H262.49L257.437 18.8V30.1622H248.403V4.94741H260.287L266.461 18.8498L272.934 4.94741H284.463L284.451 30.1622ZM276.393 29.2411H283.507V5.86846H273.534L266.431 21.1193L259.66 5.86846H249.339V29.2411H256.486V14.3679L263.094 29.2466H269.703L276.381 14.39L276.393 29.2411ZM11.7674 5.40794H3.1687V29.7016H26.9293V23.234H11.7674V5.40794ZM44.2852 4.85531C33.3094 4.85531 27.5373 9.93031 27.5373 17.3816C27.5373 25.8 33.5964 30.07 44.2852 30.07C56.0522 30.07 61.0011 25.1185 61.0011 17.3816C61.0011 9.52504 55.4178 4.85162 44.2852 4.85162V4.85531ZM44.2531 11.1682C45.0003 11.1648 45.747 11.2072 46.4887 11.2953L36.8761 20.6735C36.4212 19.6697 36.1994 18.5801 36.2266 17.4829C36.2266 13.6716 38.194 11.1645 44.2531 11.1645V11.1682ZM44.2852 23.8566C43.5653 23.8598 42.8459 23.8203 42.1308 23.7387L51.7604 14.344C52.1983 15.3312 52.4079 16.4004 52.3741 17.4756C52.3741 21.1837 50.5615 23.8529 44.2852 23.8529V23.8566ZM78.0379 20.5408H86.8877C86.7575 21.1401 86.4859 21.7014 86.0947 22.1803C84.26 23.6385 81.9185 24.3481 79.5598 24.1606C78.3725 24.2845 77.172 24.158 76.0393 23.7896C74.9066 23.4213 73.8681 22.8197 72.9947 22.0256C72.0999 20.7451 71.6748 19.2073 71.7881 17.6616C71.6433 16.0419 72.1055 14.426 73.0891 13.1135C74.3258 11.7503 76.4198 11.1627 79.4975 11.1627C81.4557 11.0045 83.4114 11.4951 85.0487 12.5553C85.5647 12.9552 85.9504 13.4928 86.1589 14.1027H94.3667C94.3071 13.0978 94.0593 12.112 93.636 11.194C91.6704 7.29425 87.1011 4.9732 79.3313 4.9732C72.5736 4.9732 68.0383 6.98478 65.5327 10.0187C63.8779 12.2097 63.0284 14.8809 63.1215 17.6008C63.0144 20.3824 63.842 23.1218 65.4779 25.4022C67.9533 28.5337 72.3621 30.0737 77.6603 30.0737C81.1827 30.3134 84.681 29.3509 87.5561 27.3511L87.7789 29.7016H94.5971V15.3111H78.0379V20.5408ZM113.949 4.84978C102.975 4.84978 97.2008 9.92478 97.2008 17.3761C97.2008 25.7945 103.258 30.0645 113.949 30.0645C125.718 30.0645 130.667 25.1129 130.667 17.3761C130.667 9.52504 125.083 4.85162 113.949 4.85162V4.84978ZM113.919 11.1627C114.646 11.1606 115.373 11.2012 116.096 11.2843L106.521 20.6311C106.08 19.6384 105.866 18.5644 105.892 17.4829C105.884 13.6716 107.859 11.1645 113.919 11.1645V11.1627ZM113.949 23.8511C113.21 23.8542 112.471 23.8122 111.738 23.7258L121.399 14.2979C121.854 15.2983 122.071 16.3856 122.036 17.4793C122.04 21.1837 120.234 23.8529 113.949 23.8529V23.8511Z" fill="#394149"/>
</svg>
