<svg width="164" height="40" viewBox="0 0 164 40" fill="none" xmlns="http://www.w3.org/2000/svg">
<path d="M0.68457 29.6654L0.684574 9.88867L10.7752 15.3822V24.2267L18.8478 28.6765L26.9203 24.2267V15.3822L37.011 9.88867V29.6654L18.8478 39.5537L0.68457 29.6654Z" fill="#192657"/>
<path fill-rule="evenodd" clip-rule="evenodd" d="M5.72992 12.6352L0.68457 9.88836L18.8478 0L37.011 9.88836L31.9657 12.6352V27.1929L18.8478 34.6093L5.7299 27.1929L5.72992 12.6352ZM31.4191 12.9327L26.9203 15.3819V15.3269L18.8478 10.8772L10.7752 15.3269V15.3819L6.27648 12.9327V26.8887L18.8478 33.996L31.4191 26.8887V12.9327Z" fill="url(#paint0_linear_0_1)"/>
<path d="M46.6819 28.1017V11.4893H49.8786V25.2538H57.6283V28.1017H46.6819Z" fill="#192657"/>
<path d="M64.5302 28.4346C63.3355 28.4346 62.2619 28.1973 61.3093 27.7226C60.3567 27.248 59.606 26.5598 59.0571 25.658C58.5081 24.7562 58.2336 23.6724 58.2336 22.4067V22.0269C58.2336 20.7612 58.5081 19.6774 59.0571 18.7757C59.606 17.8739 60.3567 17.1857 61.3093 16.711C62.2619 16.2363 63.3355 15.999 64.5302 15.999C65.725 15.999 66.7986 16.2363 67.7512 16.711C68.7038 17.1857 69.4545 17.8739 70.0034 18.7757C70.5523 19.6774 70.8269 20.7612 70.8269 22.0269V22.4067C70.8269 23.6724 70.5523 24.7562 70.0034 25.658C69.4545 26.5598 68.7038 27.248 67.7512 27.7226C66.7986 28.1973 65.725 28.4346 64.5302 28.4346ZM64.5302 25.7766C65.4667 25.7766 66.2417 25.484 66.8551 24.8985C67.4687 24.2973 67.7754 23.4429 67.7754 22.3354V22.0982C67.7754 20.9907 67.4687 20.1442 66.8551 19.5588C66.2578 18.9577 65.4828 18.657 64.5302 18.657C63.5938 18.657 62.8188 18.9577 62.2054 19.5588C61.5918 20.1442 61.2851 20.9907 61.2851 22.0982V22.3354C61.2851 23.4429 61.5918 24.2973 62.2054 24.8985C62.8188 25.484 63.5938 25.7766 64.5302 25.7766Z" fill="#192657"/>
<path d="M71.9724 22.2643V21.8846C71.9724 20.6505 72.2226 19.5984 72.7231 18.7282C73.2236 17.8422 73.8856 17.1698 74.709 16.711C75.5485 16.2363 76.4607 15.999 77.4455 15.999C78.5434 15.999 79.3749 16.1889 79.9399 16.5686C80.5051 16.9483 80.9168 17.3439 81.175 17.7552H81.611V16.3312H84.614V30.1908C84.614 30.9977 84.3718 31.6384 83.8874 32.1131C83.4031 32.6035 82.7573 32.8488 81.95 32.8488H73.9098V30.2383H80.8845C81.3365 30.2383 81.5626 30.0009 81.5626 29.5263V26.4648H81.1266C80.9651 26.718 80.7391 26.979 80.4486 27.248C80.1579 27.5011 79.7704 27.7147 79.2861 27.8888C78.8018 28.0628 78.1882 28.1499 77.4455 28.1499C76.4607 28.1499 75.5485 27.9204 74.709 27.4615C73.8856 26.9869 73.2236 26.3145 72.7231 25.4444C72.2226 24.5584 71.9724 23.4984 71.9724 22.2643ZM78.3174 25.5393C79.2538 25.5393 80.0368 25.2466 80.6665 24.6612C81.2962 24.0759 81.611 23.2531 81.611 22.1931V21.9558C81.611 20.8799 81.2962 20.0572 80.6665 19.4877C80.0529 18.9023 79.27 18.6096 78.3174 18.6096C77.381 18.6096 76.5979 18.9023 75.9683 19.4877C75.3386 20.0572 75.0238 20.8799 75.0238 21.9558V22.1931C75.0238 23.2531 75.3386 24.0759 75.9683 24.6612C76.5979 25.2466 77.381 25.5393 78.3174 25.5393Z" fill="#192657"/>
<path d="M92.6227 28.4346C91.4279 28.4346 90.3543 28.1973 89.4017 27.7226C88.4492 27.248 87.6984 26.5598 87.1495 25.658C86.6006 24.7562 86.3262 23.6724 86.3262 22.4067V22.0269C86.3262 20.7612 86.6006 19.6774 87.1495 18.7757C87.6984 17.8739 88.4492 17.1857 89.4017 16.711C90.3543 16.2363 91.4279 15.999 92.6227 15.999C93.8174 15.999 94.8911 16.2363 95.8436 16.711C96.7962 17.1857 97.5469 17.8739 98.0958 18.7757C98.6448 19.6774 98.9193 20.7612 98.9193 22.0269V22.4067C98.9193 23.6724 98.6448 24.7562 98.0958 25.658C97.5469 26.5598 96.7962 27.248 95.8436 27.7226C94.8911 28.1973 93.8174 28.4346 92.6227 28.4346ZM92.6227 25.7766C93.5591 25.7766 94.3341 25.484 94.9476 24.8985C95.5611 24.2973 95.8679 23.4429 95.8679 22.3354V22.0982C95.8679 20.9907 95.5611 20.1442 94.9476 19.5588C94.3502 18.9577 93.5753 18.657 92.6227 18.657C91.6863 18.657 90.9114 18.9577 90.2978 19.5588C89.6843 20.1442 89.3776 20.9907 89.3776 22.0982V22.3354C89.3776 23.4429 89.6843 24.2973 90.2978 24.8985C90.9114 25.484 91.6863 25.7766 92.6227 25.7766Z" fill="#192657"/>
<path d="M100.646 28.102V16.3308H103.697V28.102H100.646ZM102.172 14.9544C101.623 14.9544 101.155 14.7804 100.767 14.4323C100.396 14.0842 100.21 13.6253 100.21 13.0559C100.21 12.4863 100.396 12.0274 100.767 11.6793C101.155 11.3313 101.623 11.1572 102.172 11.1572C102.737 11.1572 103.205 11.3313 103.576 11.6793C103.948 12.0274 104.133 12.4863 104.133 13.0559C104.133 13.6253 103.948 14.0842 103.576 14.4323C103.205 14.7804 102.737 14.9544 102.172 14.9544Z" fill="#192657"/>
<path d="M105.989 32.8488V16.3312H108.992V17.7552H109.428C109.702 17.2964 110.13 16.8929 110.712 16.5448C111.293 16.1809 112.124 15.999 113.206 15.999C114.175 15.999 115.071 16.2363 115.894 16.711C116.718 17.1698 117.379 17.8501 117.88 18.752C118.38 19.6538 118.631 20.7454 118.631 22.0269V22.4067C118.631 23.6882 118.38 24.7799 117.88 25.6817C117.379 26.5836 116.718 27.2718 115.894 27.7464C115.071 28.2052 114.175 28.4346 113.206 28.4346C112.479 28.4346 111.866 28.3476 111.365 28.1736C110.881 28.0153 110.485 27.8097 110.179 27.5565C109.888 27.2875 109.654 27.0186 109.477 26.7497H109.041V32.8488H105.989ZM112.286 25.8241C113.238 25.8241 114.021 25.5313 114.635 24.946C115.264 24.3448 115.579 23.4746 115.579 22.3354V22.0982C115.579 20.959 115.264 20.0967 114.635 19.5113C114.005 18.9102 113.222 18.6096 112.286 18.6096C111.349 18.6096 110.566 18.9102 109.936 19.5113C109.307 20.0967 108.992 20.959 108.992 22.0982V22.3354C108.992 23.4746 109.307 24.3448 109.936 24.946C110.566 25.5313 111.349 25.8241 112.286 25.8241Z" fill="#192657"/>
<path d="M125.331 28.4346C123.765 28.4346 122.482 28.1024 121.48 27.4379C120.48 26.7733 119.875 25.8241 119.664 24.59L122.474 23.8781C122.587 24.4318 122.773 24.8669 123.031 25.1833C123.305 25.4998 123.636 25.7291 124.024 25.8715C124.427 25.9981 124.863 26.0614 125.331 26.0614C126.041 26.0614 126.567 25.9427 126.906 25.7054C127.244 25.4523 127.414 25.1438 127.414 24.7799C127.414 24.416 127.253 24.1391 126.93 23.9492C126.607 23.7435 126.091 23.5774 125.38 23.4509L124.702 23.3322C123.862 23.174 123.095 22.9604 122.401 22.6914C121.707 22.4067 121.15 22.019 120.73 21.5286C120.311 21.0381 120.1 20.4052 120.1 19.63C120.1 18.4592 120.536 17.5653 121.409 16.9483C122.28 16.3154 123.427 15.999 124.847 15.999C126.187 15.999 127.301 16.2918 128.189 16.8771C129.077 17.4625 129.658 18.2299 129.933 19.1791L127.099 20.0334C126.971 19.4323 126.704 19.005 126.3 18.752C125.913 18.4988 125.428 18.3722 124.847 18.3722C124.266 18.3722 123.822 18.475 123.515 18.6807C123.209 18.8706 123.055 19.1396 123.055 19.4877C123.055 19.8673 123.216 20.1521 123.54 20.342C123.862 20.516 124.298 20.6505 124.847 20.7454L125.525 20.8641C126.429 21.0223 127.244 21.2359 127.972 21.5048C128.714 21.758 129.295 22.1298 129.715 22.6203C130.151 23.0949 130.369 23.7435 130.369 24.5663C130.369 25.8004 129.908 26.7576 128.988 27.4379C128.084 28.1024 126.865 28.4346 125.331 28.4346Z" fill="#192657"/>
<path d="M136.53 28.292C135.594 28.292 134.77 28.0863 134.06 27.6751C133.366 27.2478 132.825 26.6624 132.437 25.9188C132.05 25.1753 131.856 24.3208 131.856 23.3558V16.3311H134.908V23.1184C134.908 24.0044 135.126 24.6689 135.562 25.1119C136.013 25.5549 136.651 25.7764 137.475 25.7764C138.411 25.7764 139.138 25.4758 139.654 24.8746C140.171 24.2576 140.429 23.4033 140.429 22.3116V16.3311H143.481V28.1022H140.477V26.5596H140.042C139.848 26.9552 139.485 27.3427 138.952 27.7224C138.419 28.1022 137.611 28.292 136.53 28.292Z" fill="#192657"/>
<path d="M145.787 28.1026V16.3314H148.789V17.613H149.225C149.435 17.2174 149.783 16.8773 150.266 16.5924C150.751 16.2919 151.389 16.1416 152.18 16.1416C153.035 16.1416 153.722 16.3077 154.238 16.6399C154.755 16.9563 155.15 17.3756 155.425 17.8977H155.86C156.135 17.3915 156.523 16.9722 157.024 16.6399C157.524 16.3077 158.234 16.1416 159.155 16.1416C159.897 16.1416 160.567 16.2998 161.165 16.6162C161.778 16.9168 162.262 17.3835 162.618 18.0164C162.989 18.6334 163.174 19.4165 163.174 20.3659V28.1026H160.123V20.5795C160.123 19.9308 159.954 19.4482 159.615 19.1318C159.275 18.7996 158.799 18.6334 158.186 18.6334C157.492 18.6334 156.951 18.855 156.563 19.2979C156.192 19.7251 156.006 20.3421 156.006 21.1491V28.1026H152.955V20.5795C152.955 19.9308 152.785 19.4482 152.447 19.1318C152.107 18.7996 151.631 18.6334 151.017 18.6334C150.323 18.6334 149.783 18.855 149.395 19.2979C149.023 19.7251 148.838 20.3421 148.838 21.1491V28.1026H145.787Z" fill="#192657"/>
<defs>
<linearGradient id="paint0_linear_0_1" x1="5.7299" y1="7.69093" x2="32.9747" y2="7.69094" gradientUnits="userSpaceOnUse">
<stop stop-color="#64C2DB"/>
<stop offset="0.307292" stop-color="#7476ED"/>
<stop offset="0.604167" stop-color="#C994DF"/>
<stop offset="1" stop-color="#E56F8C"/>
</linearGradient>
</defs>
</svg>
