<svg width="101" height="40" viewBox="0 0 101 40" fill="none" xmlns="http://www.w3.org/2000/svg">
<path d="M60.0115 10.631C57.4761 8.07915 54.4662 6.05487 51.1537 4.67385C47.8411 3.29282 44.2907 2.58203 40.7052 2.58203C37.1197 2.58203 33.5693 3.29282 30.2567 4.67385C26.9442 6.05487 23.9343 8.07915 21.3989 10.631L40.7052 30.0626L60.0115 10.631Z" fill="#FFD200"/>
<path d="M40.7295 30.0909C43.2648 32.6427 46.2747 34.6669 49.5873 36.0479C52.8998 37.4289 56.4502 38.1397 60.0358 38.1397C63.6211 38.1397 67.172 37.4289 70.4844 36.0479C73.7969 34.6669 76.8071 32.6427 79.3422 30.0909L60.0358 10.6592L40.7295 30.0909Z" fill="#06E07F"/>
<path d="M40.6816 30.086C38.1463 32.6378 35.1364 34.662 31.8238 36.043C28.5112 37.4241 24.9609 38.1349 21.3754 38.1349C17.7898 38.1349 14.2395 37.4241 10.9269 36.043C7.61436 34.662 4.60443 32.6378 2.06909 30.086L21.3754 10.6543L40.6816 30.086Z" fill="#E3073C"/>
<path d="M60.0591 10.6358C62.5941 8.08394 65.6044 6.05975 68.9168 4.67873C72.2292 3.2977 75.7801 2.58691 79.3652 2.58691C82.9512 2.58691 86.5011 3.2977 89.8136 4.67873C93.126 6.05975 96.1362 8.08394 98.6713 10.6358L79.3652 30.0675L60.0591 10.6358Z" fill="#1F84EF"/>
</svg>
