<svg width="45" height="40" viewBox="0 0 45 40" fill="none" xmlns="http://www.w3.org/2000/svg">
<g clip-path="url(#clip0_69_865)">
<path d="M6.22492 30.2382C7.86955 31.3691 10.536 31.3691 12.1807 30.2382C13.8252 29.1074 13.8252 27.2739 12.1807 26.1431C10.536 25.0122 7.86955 25.0122 6.22492 26.1431C4.5803 27.2739 4.5803 29.1074 6.22492 30.2382Z" fill="#25CAAC"/>
<path d="M23.2947 14.8807C25.7617 16.5769 29.7614 16.5769 32.2283 14.8807C34.6952 13.1844 34.6952 10.4343 32.2283 8.73801C29.7614 7.04176 25.7617 7.04176 23.2947 8.73801C20.8279 10.4343 20.8279 13.1844 23.2947 14.8807Z" fill="#25CAAC"/>
<path d="M14.2335 22.5589C16.2892 23.9724 19.6223 23.9724 21.6781 22.5589C23.7339 21.1454 23.7339 18.8536 21.6781 17.44C19.6223 16.0265 16.2892 16.0265 14.2335 17.44C12.1777 18.8536 12.1777 21.1454 14.2335 22.5589Z" fill="#25CAAC"/>
<path d="M1.01372 21.5356C2.24719 22.3837 4.24704 22.3837 5.48051 21.5356C6.71397 20.6875 6.71397 19.3124 5.48051 18.4642C4.24704 17.6161 2.24719 17.6161 1.01372 18.4642C-0.219745 19.3124 -0.219743 20.6875 1.01372 21.5356Z" fill="#25CAAC"/>
<path d="M14.2335 6.17903C16.2892 7.59257 19.6223 7.59257 21.6781 6.17903C23.7339 4.76549 23.7339 2.47369 21.6781 1.06016C19.6223 -0.353385 16.2892 -0.353386 14.2335 1.06016C12.1777 2.47369 12.1777 4.76549 14.2335 6.17903Z" fill="#25CAAC"/>
<path d="M6.22492 13.8573C7.86955 14.9881 10.536 14.9881 12.1807 13.8573C13.8252 12.7264 13.8252 10.893 12.1807 9.76219C10.536 8.63135 7.86955 8.63135 6.22492 9.76219C4.58029 10.893 4.58031 12.7264 6.22492 13.8573Z" fill="#25CAAC"/>
<path d="M14.2335 38.9398C16.2892 40.3533 19.6223 40.3533 21.6781 38.9398C23.7339 37.5262 23.7339 35.2344 21.6781 33.8208C19.6223 32.4074 16.2892 32.4074 14.2335 33.8208C12.1777 35.2344 12.1777 37.5262 14.2335 38.9398Z" fill="#25CAAC"/>
<path d="M34.1534 23.0711C36.6204 24.7673 40.6201 24.7673 43.087 23.0711C45.554 21.3749 45.554 18.6247 43.087 16.9285C40.6201 15.2322 36.6204 15.2322 34.1534 16.9285C31.6865 18.6247 31.6865 21.3749 34.1534 23.0711Z" fill="#25CAAC"/>
<path d="M23.2947 31.2615C25.7617 32.9578 29.7614 32.9578 32.2283 31.2615C34.6952 29.5653 34.6952 26.8152 32.2283 25.1188C29.7614 23.4226 25.7617 23.4226 23.2947 25.1188C20.8279 26.8152 20.8279 29.5653 23.2947 31.2615Z" fill="#25CAAC"/>
</g>
<defs>
<clipPath id="clip0_69_865">
<rect width="44.8485" height="40" fill="white" transform="translate(0.088623)"/>
</clipPath>
</defs>
</svg>
