<svg width="40" height="40" viewBox="0 0 40 40" fill="none" xmlns="http://www.w3.org/2000/svg">
<g clip-path="url(#clip0_69_809)">
<path d="M27.1461 16.059C26.9282 15.9326 26.6668 15.764 26.536 15.6797C25.7953 15.9747 25.0981 16.607 24.4881 17.2392C23.0938 18.6723 23.2245 19.4732 21.6994 20.0211C21.3073 20.1475 20.8716 20.3161 20.2615 20.4426C19.9129 19.431 19.0415 18.3773 18.1265 18.3773C17.4729 18.3773 16.7757 18.7145 15.9042 19.0517C14.9021 19.4732 13.987 19.9789 13.7256 20.1475L14.1177 20.6533C14.4228 20.4847 15.2506 20.1054 16.1221 19.7261C16.8628 19.431 17.5164 19.1781 17.9957 19.1781C18.7365 19.1781 19.2158 19.979 19.4772 20.6112C18.5186 20.8219 16.95 20.8641 16.4707 20.8641C16.2528 20.8641 16.1657 20.9062 16.0785 20.9484C15.9914 20.9905 15.9478 21.117 15.9042 21.2856L15.8607 21.4963H16.3835C19.0415 21.4963 21.5251 21.0748 23.0938 20.1475C23.3116 20.1897 23.5295 20.2318 23.7909 20.2318C24.706 20.2318 25.6646 19.7682 26.231 19.3046C26.4489 19.136 26.4925 19.0095 26.4925 18.8409C26.4925 18.7566 26.4925 18.7145 26.4925 18.6302L26.4489 18.3773C25.621 19.0095 24.8803 19.5153 24.0088 19.5153C23.8345 19.5153 23.7474 19.5153 23.6602 19.4732C24.4881 18.2087 25.2724 17.0285 27.1461 16.059Z" fill="#776D65"/>
<path d="M21.525 17.6191C20.915 17.6191 21.0021 16.6496 20.9585 15.8488C18.8235 16.0595 17.5163 16.6496 16.0784 17.4083L16.2527 18.0406C17.5598 17.2819 18.8235 16.8604 20.1742 16.6918C20.1742 17.4505 20.5228 18.4621 21.3943 18.4621C22.3529 18.4621 23.4858 17.029 24.8365 15.343L25.1851 14.8793C25.0108 14.7529 24.793 14.6264 24.6622 14.5C23.2679 16.2281 22.0914 17.6191 21.525 17.6191Z" fill="#776D65"/>
<path d="M16.9063 7.08102C16.6884 7.08102 16.4705 7.03887 16.2091 6.99672C15.9912 6.95457 15.7734 6.91242 15.4684 6.91242C14.9019 6.91242 14.2919 7.12317 13.8997 7.50252C13.159 8.17691 13.1154 8.93561 13.0718 9.61C13.0283 10.4951 12.854 10.7059 12.3311 11.3381C11.9389 11.8439 11.3725 12.5605 10.9368 13.277C11.0675 13.3192 11.5032 13.5721 11.6775 13.6564C12.1568 12.9398 12.854 12.0547 13.2897 11.4224C13.6819 10.8323 13.8562 10.5794 13.8997 9.7786C13.8997 9.65215 13.8997 9.5257 13.8997 9.39925C13.9433 8.97776 14.0304 8.55626 14.4662 8.17691C14.7712 7.88187 15.2069 7.71327 15.6427 7.71327C16.0784 7.71327 16.2962 7.83972 16.6884 7.83972C16.9498 7.83972 17.1241 7.79757 17.2984 7.71327L17.4291 7.67112L17.1241 8.42981L17.8649 8.72486C17.3856 9.01991 16.2962 10.2844 16.2962 11.7596C16.2962 12.3076 16.3834 12.8134 16.5141 13.2349C16.5141 13.277 16.5577 13.3192 16.6448 13.3192C16.732 13.3192 16.7755 13.277 16.7755 13.1927V13.0241C16.8191 12.5605 16.8191 11.8439 17.037 11.2117C17.342 10.1158 18.2135 9.1042 19.0413 8.59841L17.8649 8.05046L18.3877 6.82812L17.8213 6.95457C17.4727 6.99672 17.2113 7.08102 16.9063 7.08102Z" fill="#776D65"/>
<path d="M21.4815 1.98047C21.0022 1.98047 20.915 2.40197 20.915 2.65486C20.915 2.86561 21.0022 3.07636 21.2201 3.07636C21.4379 3.07636 21.6558 2.94991 21.8736 2.78131C22.0915 2.61271 22.2222 2.48626 22.2222 2.35982C22.2222 2.23337 22.0915 2.14907 21.9608 2.06477C21.7865 2.02262 21.6558 1.98047 21.4815 1.98047Z" fill="#776D65"/>
<path d="M21.6994 10.6211H18.6928L18.3442 11.2533H21.9608L21.6994 10.6211Z" fill="#776D65"/>
<path d="M14.5099 4.84674C14.6842 4.72029 14.8585 4.59384 14.8585 4.42524C14.8585 4.34095 14.8149 4.25665 14.7278 4.2145C14.597 4.08805 14.4228 4.0459 14.2485 4.0459C13.8999 4.0459 13.7256 4.3831 13.7256 4.67814C13.7256 4.88889 13.8563 5.01534 14.0742 5.01534C14.2049 4.97319 14.3792 4.93104 14.5099 4.84674Z" fill="#776D65"/>
<path d="M35.4684 17.3652L35.817 17.5759C35.8605 17.6181 35.9041 17.6181 35.9477 17.6181C36.0348 17.6181 36.0784 17.5338 36.0784 17.4916C36.0784 17.4495 36.0784 17.4073 36.0348 17.4073C34.9891 16.48 33.8997 15.3841 32.854 14.3304C32.0261 13.4874 31.1982 12.6023 30.4575 11.7171C30.4139 11.675 30.3703 11.6328 30.3268 11.6328C30.2396 11.6328 30.196 11.675 30.196 11.7593C30.196 11.8436 30.2832 11.97 30.4575 12.2651C30.9804 13.1502 31.6775 14.0353 32.4618 14.8783C33.3333 15.7635 34.3791 16.6065 35.4684 17.3652Z" fill="#776D65"/>
<path d="M30.1962 39.8731H31.0241C31.242 39.8731 31.3727 39.7888 31.5034 39.6623C31.5905 39.578 31.6341 39.4094 31.6341 39.2408V30.3051C31.6341 30.1365 31.5905 30.01 31.5034 29.8836C31.4162 29.7572 31.242 29.6729 31.0241 29.6729H30.1962C29.9783 29.6729 29.8476 29.7572 29.7169 29.8836C29.6298 29.9679 29.5862 30.1365 29.5862 30.3051V39.2408C29.5862 39.4094 29.6298 39.5359 29.7169 39.6623C29.8476 39.7888 29.9783 39.8731 30.1962 39.8731Z" fill="#776D65"/>
<path d="M16.3398 8.38817C16.2091 8.30387 16.0784 8.26172 15.9477 8.26172C15.6427 8.26172 15.5119 8.43032 15.4684 8.59892C15.4248 8.68321 15.4248 8.76751 15.4248 8.85181C15.4248 9.10471 15.5555 9.27331 15.7298 9.27331C15.9913 9.27331 16.4706 8.93611 16.4706 8.64107C16.4706 8.55677 16.427 8.43032 16.3398 8.38817Z" fill="#776D65"/>
<path d="M6.71024 17.028L6.75381 17.3231C6.75381 17.4495 6.84095 17.5338 6.9281 17.576C7.05882 17.6181 7.23311 17.6603 7.53812 17.6603C8.32244 17.6603 8.93246 17.576 9.28104 17.4917C10.1525 18.7562 11.329 19.2198 12.5054 19.2198C13.5076 19.2198 14.4662 18.8826 15.4248 18.3768L15.2505 17.7024C14.3355 18.2082 13.3333 18.5454 12.5054 18.5454C11.5468 18.5454 10.719 18.1661 9.97821 17.1123C9.6732 16.6908 9.45533 16.1429 9.15032 15.6371C8.80174 15.047 8.45315 14.752 7.79956 14.752C7.23311 14.752 6.62309 15.0049 6.05664 15.2577L6.10021 15.3842C6.14379 15.5949 6.23093 15.7635 6.4488 15.7635C6.53594 15.7635 6.62309 15.7214 6.66666 15.7214C7.01525 15.6371 7.23311 15.5106 7.5817 15.5106C8.10457 15.5106 8.36601 15.8057 8.71459 16.5644L8.84531 16.8173C8.49673 16.9437 7.62527 16.9859 6.97167 16.9859H6.71024V17.028Z" fill="#776D65"/>
<path d="M39.8256 36.5854C39.9563 36.4589 39.9999 36.3325 39.9999 36.0375C39.9999 35.1523 39.6949 34.225 39.0849 33.5085C38.4748 32.7919 37.5162 32.2861 36.1655 32.2861C33.7254 32.2861 32.3311 34.1407 32.3311 36.0796C32.3311 38.1449 33.8125 39.9995 36.1655 39.9995C37.3419 39.9995 38.5184 39.578 39.172 38.8193C39.477 38.4821 39.6949 38.0185 39.6949 37.7656C39.6949 37.6813 39.6949 37.597 39.6077 37.5127C39.5642 37.4284 39.477 37.3862 39.3027 37.3862H38.1698C37.952 37.3862 37.7777 37.4705 37.6905 37.6391C37.3419 38.1028 36.8626 38.3557 36.1655 38.3557C35.1197 38.3557 34.4226 37.597 34.379 36.7118H39.3027C39.5642 36.7118 39.7385 36.6697 39.8256 36.5854ZM34.4226 35.2788C34.5097 34.4358 35.1633 33.8035 36.1655 33.8035C37.1677 33.8035 37.8213 34.4358 37.9084 35.2788H34.4226Z" fill="#776D65"/>
<path d="M34.2483 0.800781C33.8126 1.64377 32.0697 4.2992 31.1111 5.39509L31.634 5.94304C32.1568 5.39509 32.6797 4.4678 33.2897 3.54051H33.4205C33.4205 3.58266 33.4205 3.62481 33.4205 3.70911C33.4205 4.4678 33.8126 5.05789 34.8584 5.05789C35.4684 5.05789 36.4706 4.76285 37.3856 4.4678C38.1263 4.2149 38.8235 3.962 39.1721 3.8777V3.07686C38.7799 3.20331 37.952 3.49836 37.1242 3.7934C36.2527 4.08845 35.3812 4.34135 34.9019 4.34135C34.3355 4.34135 34.2048 4.0463 34.2048 3.62481C34.2048 2.78181 34.7712 1.51732 35.1198 0.842931H34.2483V0.800781Z" fill="#776D65"/>
<path d="M27.3202 3.58272C26.6231 2.90832 26.0566 2.14963 25.708 1.81243C24.9673 1.01159 23.9651 0 22.3093 0C20.7407 0 19.695 1.01159 19.3464 1.85458C19.2592 2.10748 19.1721 2.40253 19.1285 2.52898C18.9542 2.78188 18.257 3.91992 17.9956 4.38356H19.3028L18.6492 5.56375C19.3899 5.39515 19.9128 5.2687 20.61 5.2687C21.22 5.2687 21.6993 5.39515 21.8736 5.7745C22.2222 6.49104 22.2222 8.64067 22.8758 10.2424C23.4422 11.7597 24.8801 13.235 26.4488 14.373L26.5359 14.4152C26.6231 14.4152 26.6666 14.373 26.6666 14.2887C26.6666 14.2466 26.6666 14.2044 26.6231 14.2044C25.3159 12.9399 24.2265 11.5068 23.6165 9.94731C23.0501 8.42993 23.1372 6.32244 22.6579 5.353C22.3093 4.72076 21.6122 4.55216 20.9586 4.55216C20.4357 4.55216 19.9564 4.63646 19.7385 4.72076L20.305 3.79347H19.3464C19.5642 3.45627 19.7821 3.11907 19.8692 2.95047C19.9564 2.78188 20 2.57113 20.0871 2.31823C20.4357 1.43309 21.2636 0.842993 22.3093 0.842993C23.6165 0.842993 24.4008 1.68599 25.1851 2.48683C25.5337 2.86617 26.1002 3.66702 26.7973 4.25711C27.2767 4.67861 28.1481 5.14225 29.4989 6.44889C30.2832 7.20759 31.1982 8.21918 32.1133 9.61012C35.5119 14.4152 37.7777 18.6723 38.9978 22.0021C35.4248 19.6417 32.3311 17.4499 29.8475 14.7102C28.061 12.7713 26.5359 10.4953 25.1851 7.62908C25.098 7.41833 25.0109 7.24974 24.9237 7.08114C24.8801 6.99684 24.8366 6.99684 24.793 6.99684C24.7058 6.99684 24.6623 7.03899 24.6623 7.12329C24.6623 7.20759 24.7058 7.37619 24.793 7.67123C25.4902 10.6639 27.4945 13.3193 29.586 15.5532C31.6775 17.745 34.074 19.6417 36.0348 21.0327L37.5599 25.2476C37.6034 25.3319 37.647 25.4584 37.647 25.5427C37.647 25.627 37.647 25.6691 37.5599 25.7113C37.5163 25.7534 37.4727 25.7534 37.342 25.7534H36.8627C36.6448 25.7534 36.6013 25.7113 36.5141 25.6691C36.427 25.627 36.3834 25.5427 36.3398 25.4162C36.2091 25.0369 35.3812 22.8029 35.2505 22.3393C35.2069 22.255 35.1634 22.2129 35.1198 22.2129C35.0326 22.2129 34.9891 22.255 34.9891 22.3393C34.9891 22.3815 34.9891 22.4658 35.0326 22.6344C35.2505 23.6459 35.4684 24.784 35.5555 25.2055C35.5991 25.4162 35.6427 25.5848 35.6427 25.7113C35.6427 25.8377 35.5991 25.922 35.5119 26.0063L35.0762 26.5543C34.9455 26.6807 34.9019 26.6807 34.8148 26.6807C34.6841 26.6807 34.5969 26.5964 34.5533 26.4278C34.0305 23.9831 33.2026 20.9905 32.9847 20.1897C32.9411 20.0211 32.8976 19.8946 32.7668 19.8946C32.6797 19.8946 32.6361 19.9789 32.6361 20.0632C32.6361 20.1054 32.6361 20.1897 32.6797 20.274C32.8104 21.117 33.3333 24.2782 33.8997 27.1444C33.9869 27.6502 34.2048 27.9031 34.6405 27.9031C34.8584 27.9031 35.0326 27.8188 35.2069 27.6502C35.5119 27.3551 35.5991 27.313 35.9477 26.9758C36.2091 26.765 36.3834 26.6386 36.7756 26.6386H37.8213C38.0828 26.6386 38.2135 26.5964 38.3006 26.47C38.4313 26.3857 38.4749 26.2171 38.4749 26.0063C38.4749 25.7956 38.4313 25.627 38.3442 25.4162C38.0828 24.6997 37.2113 22.3815 36.9499 21.7071C37.8213 22.3393 39.1285 23.1823 39.695 23.1823C39.8692 23.1823 39.9564 23.098 39.9564 22.8451C39.9564 21.5806 37.7777 16.4384 32.854 9.31507C30.2832 5.47945 27.9738 4.17281 27.3202 3.58272Z" fill="#776D65"/>
<path d="M36.7755 6.78604C37.6034 6.44884 39.1284 5.85874 39.9999 5.5637V4.7207C38.257 5.35295 35.1633 6.57529 33.0718 7.67118C33.1154 7.75548 33.5075 8.21912 33.5511 8.30342C34.4225 7.96623 35.2504 7.71333 35.9476 7.71333C36.9498 7.71333 37.7777 7.71333 39.172 7.41828V6.78604C38.3877 6.91248 37.5598 7.08108 37.0369 7.08108C36.7319 7.08108 36.6448 7.03893 36.6448 6.95463C36.6012 6.91248 36.6448 6.87033 36.7755 6.78604Z" fill="#776D65"/>
<path d="M16.5576 3.16138C16.0783 3.16138 15.7733 3.16138 15.3376 2.95064C14.7711 2.69774 14.4661 2.57129 13.9868 2.57129C13.3768 2.57129 12.8104 2.78204 12.3746 3.20353C11.8518 3.66718 11.6775 4.29942 11.5032 4.97382C11.3724 5.52176 11.1982 6.11186 10.806 6.61765C10.4574 7.0813 10.2395 7.29205 9.49881 8.17719C8.49663 9.31523 7.97375 10.2425 7.10229 12.2657C7.23301 12.2657 7.45088 12.2236 7.66874 12.2236C7.79946 12.2236 7.88661 12.2236 8.01733 12.2236L8.10447 12.0128C8.58378 11.0012 9.23737 9.65243 10.1524 8.59869L10.4574 8.21934C11.416 7.1656 11.9825 6.53335 12.3746 5.05812C12.5053 4.55232 12.5925 4.08868 12.9846 3.75148C13.2897 3.45643 13.7254 3.32998 14.1175 3.32998C14.4661 3.32998 14.7276 3.41428 15.1197 3.58288C15.4247 3.75148 15.5555 3.79363 15.904 3.79363C16.0348 3.79363 16.1219 3.79363 16.209 3.79363L15.7297 4.42587L16.3833 4.88952C15.5555 5.14242 15.1197 5.90111 14.9454 6.28046C14.9019 6.36476 14.9019 6.40691 14.9019 6.44906C14.9019 6.49121 14.9454 6.5755 15.0326 6.5755C15.1197 6.5755 15.2069 6.49121 15.294 6.36476C15.6862 5.90111 16.0348 5.56391 17.5162 5.10027L16.4705 4.34157L17.2548 3.20353H16.5576V3.16138Z" fill="#776D65"/>
<path d="M3.31155 5.64805C1.56863 5.64805 0.827887 6.44889 0.827887 6.99684C0.305011 7.20759 0 7.75553 0 8.26133C0 9.27292 0.784314 9.98946 1.78649 9.98946C2.13508 9.98946 2.48366 9.86301 2.70152 9.69442C2.87582 9.73656 3.09368 9.77871 3.35512 9.77871C3.83442 9.77871 4.40087 9.61012 4.74945 9.06217C4.79303 9.06217 4.8366 9.06217 4.92375 9.06217C5.53377 9.06217 6.10022 8.68282 6.36166 8.13488C6.4488 8.00843 6.4488 7.92413 6.4488 7.83983C6.4488 7.75553 6.40523 7.71338 6.31808 7.71338C6.23094 7.71338 6.18736 7.79768 6.01307 7.96628C5.62091 8.30348 5.01089 8.42993 4.40087 8.42993C4.09586 8.85142 3.7037 9.10432 3.31155 9.10432C3.00654 9.10432 2.7451 9.02002 2.48366 8.85142C2.26579 9.06217 2.00436 9.14647 1.78649 9.14647C1.22004 9.14647 0.827887 8.76712 0.827887 8.21918C0.827887 7.83983 1.08932 7.50263 1.43791 7.37619C1.48148 6.70179 2.2658 6.23815 3.18083 6.23815C3.31155 6.23815 3.39869 6.23815 3.52941 6.23815C3.66013 6.0274 4.00871 5.7745 4.48802 5.73235C4.57516 5.73235 4.66231 5.73235 4.70588 5.6902C4.74946 5.64805 4.79303 5.6059 4.79303 5.56375C4.79303 5.5216 4.79303 5.47945 4.70588 5.4373C4.66231 5.39515 4.57516 5.39515 4.48802 5.39515C4.05229 5.31085 3.52941 5.05796 3.2244 4.38356C2.17865 4.38356 1.39434 3.54057 1.39434 2.61328V2.57113C1.08932 2.44468 0.827887 2.10748 0.827887 1.72813C0.827887 1.22234 1.26362 0.800843 1.78649 0.800843C2.0915 0.800843 2.39651 0.969441 2.57081 1.18019C2.70152 1.13804 2.87582 1.13804 3.05011 1.13804C3.83442 1.13804 4.70588 1.60169 4.8366 2.57113C5.83878 2.65543 6.10022 3.49842 6.14379 3.83562C6.18736 4.00422 6.18736 4.17281 6.31808 4.17281C6.4488 4.17281 6.49237 4.04636 6.53595 3.83562C6.62309 3.49842 6.75381 3.20337 7.01525 2.99262C7.01525 2.10748 7.71242 1.34879 8.67102 1.34879C8.80174 1.05374 9.15033 0.800843 9.54248 0.800843C10.0654 0.800843 10.5011 1.18019 10.5011 1.72813C10.5011 2.02318 10.3704 2.31823 10.1089 2.44468C10.1525 2.61328 10.1961 2.78188 10.1961 2.90832C10.1961 3.49842 9.84749 3.87777 9.1939 4.08851C9.10675 4.42571 8.97603 4.76291 8.7146 4.97366C8.27887 5.353 7.84314 5.353 7.84314 5.5216C7.84314 5.6059 7.88671 5.64805 8.061 5.64805C8.84532 5.64805 9.62963 5.22655 9.71677 4.51001C10.4575 4.25711 10.9368 3.54057 10.9368 2.95047C10.9368 2.78188 10.9368 2.65543 10.8497 2.52898C11.0675 2.31823 11.2854 2.02318 11.2854 1.51739C11.2854 1.09589 11.1111 0.674394 10.7625 0.337197C10.5011 0.168599 10.0654 0 9.58606 0C8.88889 0 8.40959 0.379347 8.14815 0.716544C7.36383 0.716544 6.40523 1.55954 6.40523 2.73973H6.31808C6.23094 2.31823 5.79521 2.06533 5.44662 2.02318C5.09804 1.18019 4.44444 0.421496 3.35512 0.421496C3.2244 0.421496 3.09368 0.421496 2.91939 0.463646C2.61438 0.168599 2.22222 0 1.74292 0C0.784314 0 0 0.758693 0 1.68599C0 2.27608 0.261438 2.65543 0.784314 3.03477V3.16122C0.784314 3.91992 1.6122 5.10011 2.87582 5.10011C2.87582 5.31085 3.13725 5.56375 3.39869 5.6059V5.6902H3.31155V5.64805Z" fill="#776D65"/>
<path d="M20.9586 38.441C20.61 38.441 20.2615 38.3988 20 38.2302C19.7822 38.1459 19.6514 38.0195 19.5207 37.8087C19.4336 37.6401 19.39 37.5558 19.2157 37.4294C19.1286 37.3872 18.9978 37.3872 18.8235 37.3872H17.9521C17.7778 37.3872 17.6906 37.4294 17.6035 37.5137C17.5599 37.598 17.5164 37.6823 17.5164 37.8087C17.5164 38.0616 17.6035 38.441 17.8649 38.736C18.3878 39.4525 19.5207 40.0005 20.9586 40.0005C22.353 40.0005 24.3137 39.4525 24.3137 37.598C24.3137 37.1343 24.183 36.7128 23.9216 36.3756C23.573 35.9541 23.1373 35.6591 22.3094 35.4905L20.6972 35.1111C20.0436 34.9425 19.7386 34.8161 19.7386 34.4367C19.7386 34.0574 20.0872 33.7623 20.915 33.7623C21.3944 33.7623 21.8301 33.8466 22.1351 34.1417C22.353 34.3946 22.3094 34.521 22.5273 34.6053C22.658 34.6475 22.7887 34.6475 22.963 34.6475H23.7473C23.878 34.6475 23.9652 34.6475 24.0523 34.5632C24.0959 34.521 24.1395 34.3946 24.1395 34.2681C24.1395 33.9309 23.9216 33.4673 23.4859 33.088C22.9194 32.6243 22.0479 32.2871 20.9586 32.2871C19.0414 32.2871 17.7778 33.1723 17.7778 34.6053C17.7778 35.1111 17.9521 35.5326 18.2571 35.8277C18.6057 36.207 19.1286 36.4599 19.8693 36.6285L21.4815 37.0079C21.9172 37.1343 22.3094 37.2608 22.3094 37.6401C22.2658 38.2302 21.6122 38.441 20.9586 38.441Z" fill="#776D65"/>
<path d="M6.1875 5.77454C6.57966 6.28034 7.18968 7.33408 7.7997 8.68286C7.88685 8.51427 8.23543 8.09277 8.36615 7.96632C7.84327 6.91258 6.92824 5.90099 6.53608 5.47949L6.1875 5.77454Z" fill="#776D65"/>
<path d="M16.2526 15.0055C16.8627 14.7105 17.8213 14.584 18.3441 14.584C18.7799 14.584 19.2592 14.6262 19.6513 14.6683C20.1306 14.7105 20.6971 14.7948 21.2635 14.7948C22.5707 14.7948 23.8779 14.1204 24.0958 13.9939C23.9215 13.8675 23.7472 13.6567 23.6165 13.5303C23.1807 13.6989 22.2221 14.0361 21.2635 14.0361C20.7842 14.0361 20.3921 13.9939 19.9563 13.9518C19.3899 13.8675 18.867 13.8253 18.4313 13.8253C17.6905 13.8253 16.7755 13.9096 15.9041 14.4997L16.2526 15.0055Z" fill="#776D65"/>
<path d="M14.9892 14.457L14.5971 13.9512C13.0284 14.5413 11.2419 15.4686 11.2419 16.438C11.2419 16.9859 11.6777 17.4074 12.6363 17.4074C14.0306 17.4074 15.5121 16.733 16.7321 16.1008L16.5578 15.9322C16.4707 15.8058 16.3836 15.7636 16.2528 15.7636C16.1657 15.7636 16.0785 15.8058 15.9914 15.8479C14.9892 16.3116 13.8563 16.8173 12.8106 16.8173C12.2005 16.8173 12.0698 16.6487 12.0698 16.3959C12.0698 15.6372 14.0306 14.8363 14.9892 14.457Z" fill="#776D65"/>
<path d="M28.584 33.9309C28.7147 33.9309 28.8455 33.8888 28.9326 33.8045C29.0197 33.7202 29.0633 33.5937 29.0633 33.4673V33.0036C29.0633 32.8351 29.0197 32.7508 28.9326 32.6665C28.8455 32.5822 28.7147 32.54 28.584 32.54H27.3204V30.3061C27.3204 30.1375 27.2768 30.011 27.1897 29.8846C27.1025 29.7581 26.9282 29.6738 26.7104 29.6738H25.9261C25.7082 29.6738 25.5775 29.7581 25.4468 29.8846C25.3596 29.9689 25.316 30.1375 25.316 30.3061V32.54H24.9239C24.7932 32.54 24.6624 32.5822 24.5753 32.6665C24.4882 32.7508 24.4446 32.8772 24.4446 33.0036V33.4673C24.4446 33.6359 24.4882 33.7623 24.5753 33.8045C24.6624 33.8888 24.7932 33.9309 24.9239 33.9309H25.2725V37.3451C25.2725 38.2302 25.5339 38.7781 25.9696 39.1996C26.4054 39.6211 26.9282 39.874 27.8868 39.874H28.4969C28.6276 39.874 28.7583 39.8319 28.8455 39.7476C28.9326 39.6633 28.9762 39.5368 28.9762 39.4104V38.8203C28.9762 38.6517 28.9326 38.5674 28.8455 38.4831C28.7583 38.3988 28.6712 38.3567 28.5404 38.3567H28.4533C28.0611 38.3567 27.7997 38.2724 27.6254 38.1038C27.4075 37.893 27.3204 37.6401 27.3204 37.2186V33.9309H28.584Z" fill="#776D65"/>
<path d="M39.303 31.2329C39.4338 31.2329 39.5645 31.1907 39.6516 31.1064C39.7388 31.0221 39.7824 30.8957 39.7824 30.7692V30.137C39.7824 29.8841 39.7388 29.7576 39.6516 29.6733C39.5645 29.589 39.4338 29.5469 39.303 29.5469C39.1723 29.5469 39.0852 29.5469 38.8673 29.589L33.2464 30.137C33.0721 30.137 33.0285 30.1791 32.9414 30.2634C32.8978 30.3477 32.8542 30.432 32.8542 30.5585V30.8957C32.8542 31.0221 32.8978 31.1064 32.9414 31.1486C32.985 31.2329 33.1157 31.2329 33.2028 31.2329H39.303Z" fill="#776D65"/>
<path d="M28.9762 16.9443C27.9304 19.094 26.3182 20.6535 24.6624 21.5808C23.8781 22.0023 23.1809 22.2973 21.6559 22.2973H18.3443C17.1679 22.2973 16.4271 22.4659 15.8607 22.5924C15.2507 22.761 14.8585 22.8874 14.2049 22.8874C13.2899 22.8874 12.4184 22.4238 11.9827 22.0023L12.767 21.4122L12.3748 20.9064C12.157 21.075 9.41188 23.056 8.80186 23.4775H8.75829C8.75829 23.3511 8.75829 23.2246 8.75829 23.0982C8.75829 21.5808 8.01755 21.2436 6.92822 20.8221L6.18748 21.2436C7.66896 21.7072 8.06112 22.1287 8.06112 23.1825C8.06112 24.0255 7.75611 24.3627 7.27681 24.6577C6.7975 24.9106 6.23105 25.0371 5.70818 25.0371C5.49031 25.0371 5.40317 25.0792 5.31602 25.1635C5.22888 25.2478 5.1853 25.3743 5.1853 25.5429V25.7958H5.35959C6.3182 25.7958 7.18966 25.6693 8.14827 24.9106L11.2855 22.5502C11.7213 23.056 12.8541 23.7304 14.1613 23.7304C14.9021 23.7304 15.3814 23.5618 16.0785 23.3932C16.6014 23.2668 17.1243 23.1403 18.3008 23.1403H21.6123C23.3117 23.1403 24.1396 22.8031 25.011 22.2973C26.9718 21.2436 28.6276 19.4312 29.5862 17.3658C29.3683 17.1972 29.1504 17.0708 28.9762 16.9443Z" fill="#776D65"/>
<path d="M0.0436661 23.6035H0.305104C0.82798 23.6035 0.871553 23.3084 0.871553 23.0134C0.871553 22.8027 0.871553 22.5919 0.871553 22.339C0.871553 21.7911 0.915126 21.2853 1.83016 20.8638C2.22232 20.6952 4.09595 19.9786 5.49029 19.3885C5.88245 19.2199 6.2746 19.0935 6.71033 19.0935C7.18964 19.0935 7.71251 19.3042 8.40968 19.6836C8.97613 20.0208 9.58615 20.4423 10.0655 20.9481L10.6755 20.4844C10.1526 19.8943 9.45543 19.3885 8.71469 18.967C8.01752 18.5455 7.36393 18.3348 6.84105 18.3348C6.62319 18.3348 6.40532 18.3769 6.2746 18.4191C6.10031 18.4612 5.92602 18.5034 5.66458 18.5034C5.40314 18.5034 5.18528 18.4612 4.88027 18.0819C4.74955 17.9554 4.00881 17.1125 3.83452 16.8596C3.74737 16.7331 3.61665 16.5224 3.61665 16.2273C3.61665 16.1009 3.61665 15.9744 3.7038 15.848C4.35739 16.3538 5.18528 16.6488 6.14388 16.7753L6.01316 16.143C4.57526 15.8058 3.0502 14.5835 3.0502 13.8248C3.0502 13.6562 3.09377 13.5297 3.13735 13.4033C3.7038 13.9091 4.96741 14.4149 5.66458 14.4149C6.05674 14.4149 6.36175 14.2884 6.66676 14.162C6.9282 14.0355 7.23321 13.9512 7.62537 13.9512C8.5404 13.9512 9.62972 14.3727 10.6319 14.7942C10.6755 14.7942 10.7626 14.8364 10.8062 14.8364C10.9805 14.8364 11.0676 14.7521 11.1548 14.6256L11.2855 14.4149C10.1962 13.8248 8.49683 13.1504 7.58179 13.1504C7.18964 13.1504 6.88462 13.2347 6.57961 13.3611C6.2746 13.4876 5.96959 13.614 5.70815 13.614C5.01099 13.614 3.18092 12.9396 3.18092 12.2652C3.18092 11.5066 6.10031 11.1694 6.40532 11.1694L6.71033 10.5371C4.61883 10.5371 2.0916 11.2537 2.0916 12.2231C2.0916 12.476 2.26589 12.6446 2.26589 12.8975C2.26589 13.2347 2.0916 13.4876 2.0916 13.8669C2.0916 14.1198 2.26589 14.457 2.44018 14.7099C2.65805 15.005 2.87591 15.2157 2.87591 15.4265C2.87591 15.5951 2.74519 15.848 2.74519 16.2695C2.74519 17.1968 3.26807 17.7447 4.35739 18.8406L4.57526 19.0513C3.7038 19.3885 2.04802 20.0629 1.69944 20.2315C0.39225 20.7795 0.0436661 21.4117 0.0436661 22.4233C9.30829e-05 22.7605 9.30829e-05 23.2241 0.0436661 23.6035Z" fill="#776D65"/>
<path d="M9.15024 2.36082C9.15024 2.31867 9.10666 2.23438 9.01952 2.23438C8.97595 2.23438 8.93237 2.27652 8.84523 2.31867C8.58379 2.52942 8.32235 2.78232 8.10449 3.03522C7.7559 3.41456 7.45089 3.96251 7.18945 4.51045L7.58161 4.7212C7.84305 4.38401 8.71451 3.11952 9.15024 2.44512C9.15024 2.44512 9.15024 2.40297 9.15024 2.36082Z" fill="#776D65"/>
<path d="M0 39.1565C0 39.3673 0.043573 39.4937 0.174292 39.6202C0.305011 39.7466 0.479303 39.8309 0.740741 39.8309H1.39434C1.65577 39.8309 1.83007 39.7466 1.96078 39.6202C2.04793 39.4937 2.13508 39.3673 2.13508 39.1565V32.8341H2.17865C2.17865 32.8341 5.83878 39.0722 5.9695 39.283C6.18736 39.6202 6.53595 39.8731 7.01525 39.8731H8.14815C8.40959 39.8731 8.58388 39.7888 8.7146 39.6623C8.80174 39.5359 8.88889 39.4094 8.88889 39.1987V31.2324H23.5294C23.6601 31.2324 23.7908 31.1902 23.878 31.1059C23.9651 31.0216 24.0087 30.8952 24.0087 30.7687V30.1786C24.0087 30.01 23.9651 29.9257 23.878 29.8415C23.7908 29.7572 23.6601 29.715 23.5294 29.715H7.45098C7.18954 29.715 7.01525 29.7993 6.88453 29.9257C6.79739 30.0522 6.71024 30.1786 6.71024 30.3894V36.5854H6.66667C6.66667 36.5854 3.18083 30.558 3.00654 30.2629C2.87582 30.0522 2.7451 29.9257 2.57081 29.8415C2.39651 29.7572 2.22222 29.6729 1.87364 29.6729H0.697168C0.43573 29.6729 0.261438 29.7572 0.130719 29.8836C0.043573 30.01 0 30.1365 0 30.3894V39.1565Z" fill="#776D65"/>
<path d="M16.9499 36.5864C17.0806 36.4599 17.1242 36.3335 17.1242 36.0384C17.1242 35.1533 16.8192 34.226 16.2091 33.5094C15.5991 32.7929 14.6405 32.2871 13.2897 32.2871C10.8497 32.2871 9.45532 34.1417 9.45532 36.0806C9.45532 38.1459 10.9368 40.0005 13.2897 40.0005C14.4662 40.0005 15.6427 39.579 16.2963 38.8203C16.6013 38.4831 16.8192 38.0195 16.8192 37.7666C16.8192 37.6823 16.8192 37.598 16.732 37.5137C16.6884 37.4294 16.6013 37.3872 16.427 37.3872H15.2941C15.0762 37.3872 14.9019 37.4715 14.8148 37.6401C14.4662 38.1038 13.9869 38.3567 13.2897 38.3567C12.244 38.3567 11.5468 37.598 11.5033 36.7128H16.427C16.6884 36.7128 16.8192 36.6707 16.9499 36.5864ZM11.5468 35.2797C11.634 34.4367 12.2876 33.8045 13.2897 33.8045C14.2919 33.8045 14.9455 34.4367 15.0327 35.2797H11.5468Z" fill="#776D65"/>
<path d="M2.5271 7.88234C2.5271 7.92449 2.57067 8.00879 2.61425 8.00879C2.65782 8.00879 2.70139 8.00879 2.78854 7.96664L5.35934 7.12364L5.22862 6.70215C4.18287 6.87075 3.39856 7.12364 2.5271 7.79804C2.5271 7.79804 2.5271 7.84019 2.5271 7.88234Z" fill="#776D65"/>
<path d="M4.09584 2.99307C3.70369 2.69802 3.22438 2.48727 2.70151 2.27652L2.61436 2.23438C2.52722 2.23438 2.48364 2.27652 2.48364 2.31867C2.48364 2.36082 2.48364 2.40297 2.57079 2.44512C3.18081 2.95092 4.35728 3.92036 4.74944 4.21541L5.05445 3.87821C4.74944 3.54101 4.40085 3.24597 4.09584 2.99307Z" fill="#776D65"/>
</g>
<defs>
<clipPath id="clip0_69_809">
<rect width="40" height="40" fill="white"/>
</clipPath>
</defs>
</svg>
