<svg width="65" height="35" viewBox="0 0 65 35" fill="none" xmlns="http://www.w3.org/2000/svg">
<g clip-path="url(#clip0_69_892)">
<path d="M34.8032 20.001C49.5852 18.8917 59.8536 14.2956 57.7382 9.73527C55.6229 5.17494 41.9249 2.37731 27.1429 3.48659C12.3609 4.59587 2.09251 9.19199 4.20785 13.7523C6.32319 18.3126 20.0212 21.1103 34.8032 20.001Z" fill="white"/>
<path d="M26.2006 6.88724C26.4252 7.58724 25.6392 8.17434 24.4041 8.19692C23.169 8.2195 21.9339 7.6324 21.7094 6.9324C21.4848 6.20982 22.3269 5.64531 23.562 5.62272C24.7971 5.60014 25.976 6.16466 26.2006 6.88724Z" fill="#231F20"/>
<path d="M44.9515 6.14227C45.0638 6.77452 44.3339 7.24872 43.2673 7.20356C42.2006 7.1584 41.1901 6.61646 41.0217 5.9842C40.9094 5.35194 41.6953 4.90033 42.8181 4.94549C43.8287 4.99065 44.7831 5.51001 44.9515 6.14227Z" fill="#231F20"/>
<path d="M52.7549 8.01682C52.5304 7.94907 52.3058 8.0394 52.4181 8.12972C52.9795 8.60391 52.9233 9.30391 51.183 9.30391C49.2181 9.30391 46.5795 8.28778 42.9865 8.28778C40.4602 8.28778 37.6532 8.98778 37.4286 10.5458C35.7444 9.50714 32.8251 8.80714 29.2321 8.80714C22.7198 8.80714 18.1163 11.991 12.6146 11.991C10.2567 11.991 9.52684 11.1329 10.0882 10.5007C10.1444 10.3878 9.86368 10.32 9.69526 10.3878C7.84263 10.9749 7.16895 11.991 7.16895 12.9846C7.16895 15.6491 13.9058 17.9071 22.8882 17.9071C31.4216 17.9071 38.6637 15.8297 39.0005 12.8265C40.7409 13.8426 43.7163 14.4297 46.6356 14.4297C51.4637 14.4297 55.9549 13.0523 55.9549 10.7491C55.8988 9.6652 54.4953 8.42327 52.7549 8.01682Z" fill="#231F20"/>
<path d="M22.1584 1.33315C18.6216 1.28799 15.5339 2.62024 15.3093 4.29121C15.3093 4.38153 15.3093 4.47186 15.3093 4.56218C15.3093 4.62992 15.4216 4.67508 15.59 4.67508C15.59 4.67508 15.59 4.67508 15.6462 4.67508C15.7584 4.67508 15.9269 4.62992 15.9269 4.58476C16.7128 3.22992 19.8567 2.28153 23.3935 2.32669C24.1795 2.34928 25.0216 2.39444 25.7514 2.52992C25.976 2.57508 26.2006 2.52992 26.369 2.4396C26.5374 2.34928 26.5374 2.21379 26.3128 2.14605C25.1339 1.64928 23.6742 1.35573 22.1584 1.33315Z" fill="#231F20"/>
<path d="M46.6919 3.34241C46.6358 3.25209 46.5796 3.18435 46.5235 3.11661C45.9059 2.37145 44.727 1.78435 43.2673 1.46822C42.2007 1.24241 41.0779 1.21983 40.0673 1.35532C39.0007 1.4908 38.1586 1.82951 37.5972 2.28112C37.4849 2.37145 37.541 2.48435 37.7656 2.55209C37.934 2.61983 38.2147 2.61983 38.4393 2.55209C38.8884 2.41661 39.3375 2.32629 39.8428 2.25854C42.3129 1.91983 44.9515 2.39403 46.1866 3.38758C46.2428 3.43274 46.3551 3.45532 46.4673 3.45532C46.5235 3.45532 46.5235 3.45532 46.5796 3.45532C46.6919 3.4779 46.748 3.41016 46.6919 3.34241Z" fill="#231F20"/>
<path d="M59.0427 22.2877C59.0989 22.3103 59.155 22.3329 59.2112 22.3554C59.3796 22.4232 59.4919 22.4232 59.6041 22.3329C59.6603 22.2877 59.9971 21.8587 60.1094 21.6554C60.2217 21.4974 60.7269 20.7974 60.7269 20.7522C60.7831 20.6845 60.7269 20.6845 60.6147 20.6393C60.334 20.5038 59.4919 20.2103 58.762 20.0522C55.8989 19.42 54.1585 19.9619 53.4848 20.4135C52.3059 19.6909 49.4989 19.6006 47.5901 20.2554C47.6462 19.9845 47.7024 19.1038 47.7585 18.72C47.7585 18.6296 47.7024 18.5393 47.534 18.4716C47.4217 18.4264 47.3094 18.3812 47.1971 18.3361C46.2989 18.0651 45.0076 17.907 43.6041 18.2232C43.548 18.2458 43.0427 18.3361 42.4813 18.4716C42.4813 18.3135 42.4813 18.1103 42.4813 18.0425C42.4813 17.9974 42.4813 17.9522 42.4813 17.9522C42.4813 17.5909 41.8076 17.3877 41.1901 17.3877C40.7971 17.3877 40.4603 17.4554 40.2357 17.5232C39.169 17.7941 36.6427 18.4716 35.4076 18.72C35.2392 18.7425 35.1269 18.7877 35.0147 18.8103C34.8462 18.8554 34.6217 18.9006 34.5655 18.9006C34.3971 18.9006 33.8357 18.8554 33.2743 18.7877C32.6006 18.72 28.7831 18.3812 28.1655 18.3361C27.8287 18.3135 27.6041 18.3135 27.4357 18.3135C27.2112 18.3135 26.6498 18.3135 26.2006 18.5167C26.0322 18.6071 25.8076 18.7425 25.8638 18.9683L25.9199 19.1038C25.9761 19.2167 25.9761 19.3748 26.0322 19.5329C26.0883 19.7587 26.2006 20.2329 26.2006 20.6393C26.2006 20.7071 26.2006 20.7748 26.2006 20.8425C25.7515 20.6393 24.7971 20.6845 23.955 20.9103C23.7866 20.9554 23.6182 21.0006 23.4498 21.0458C22.7761 21.249 22.2147 21.3619 21.5971 21.4071C21.0357 21.4522 20.5305 21.4071 20.1936 21.52C20.1375 21.5425 20.0252 21.5877 20.0252 21.6329C19.9129 21.7232 19.9129 21.7909 19.969 21.9038C19.969 21.9264 20.0252 21.949 20.0252 21.9941C20.1375 22.1296 20.362 22.2877 20.5305 22.4458C20.8112 22.6716 21.0919 22.92 21.3164 23.0554C21.3726 23.1006 21.4287 23.1232 21.4848 23.1232C20.9796 23.2135 20.4743 23.4393 20.3059 23.5296C20.0813 23.4845 19.8568 23.5071 19.5199 23.5974C19.1269 23.7103 18.4533 23.8232 18.1164 23.9361C17.6673 22.4909 13.5129 21.7232 7.89887 23.7554C7.11291 24.049 6.49537 24.32 6.15852 24.5006C5.87782 24.6361 5.93396 24.7038 6.15852 24.8393C6.32694 24.9522 6.38309 25.5393 6.32694 26.0361C6.15852 27.7296 5.87782 30.7329 5.7094 32.2909C5.65326 32.6974 5.4287 33.307 6.83221 33.6232C7.89887 33.8716 8.9094 33.6458 10.0883 33.2845C10.8743 33.0361 12.334 32.5393 12.334 32.5393C12.334 32.449 12.334 32.3361 12.334 32.2458C12.334 32.0877 12.334 31.9296 12.334 31.8393C12.3901 31.4554 12.4462 30.7103 12.5585 30.1232C12.5585 29.9651 12.6147 29.8296 12.6147 29.6941C13.5691 29.3329 14.748 28.8812 15.6462 28.3845C15.534 29.107 15.4217 30.7103 15.3655 30.778C15.7585 30.8909 16.1515 31.0038 16.4883 31.1167C18.1164 30.6425 19.6883 30.2135 21.3164 29.8296C21.3726 29.5135 21.3726 29.22 21.4287 28.9038C21.541 28.9716 21.7094 29.0393 21.8778 29.0845C22.3831 29.2425 23.0568 29.2877 23.7866 29.2425C24.7971 29.1748 25.6954 28.949 26.2006 28.7458C27.4357 28.4748 28.7269 28.2264 29.962 28.0232C30.6919 27.8877 30.9164 27.8425 30.9164 27.6619C30.9164 27.6393 30.9164 27.6393 30.9164 27.6167C31.2533 27.6845 31.6462 27.707 31.9831 27.707C32.1515 27.707 32.3199 27.7071 32.5445 27.6845C32.6568 27.9329 33.6673 28.9038 36.9796 29.0619C38.4954 29.1296 39.6743 29.0393 40.5726 28.8361C40.741 28.7909 40.9094 28.7458 41.0217 28.7006C42.8182 28.1361 42.762 27.12 42.8182 26.6232C42.8743 26.6232 43.6603 27.0071 45.3445 26.7812C46.1305 26.6909 46.6919 26.42 47.3655 26.2167C48.0954 26.4877 49.2743 26.6683 50.3971 26.6683C51.3515 26.6683 52.3059 26.5329 53.4848 26.1716C54.0462 26.3522 55.7305 26.849 57.6954 26.6458C58.3129 26.578 58.762 26.4651 59.0989 26.3071C59.8848 25.9458 60.2217 25.449 60.0533 24.7941C59.941 24.2296 59.3234 23.62 58.8743 23.1006C58.4813 22.6941 58.3129 22.4683 58.2006 22.3329C58.3129 22.1296 58.4813 22.107 59.0427 22.2877ZM34.2287 21.5651C33.7234 21.2941 33.162 21.2264 32.6006 21.2038C32.4322 21.2038 32.2076 21.2038 31.9831 21.2038C32.7129 20.9554 33.4989 20.6619 34.0041 20.5038C35.0147 20.1651 35.3515 20.12 35.4638 20.0974C35.5199 20.0974 35.7445 20.0974 36.1375 20.1425C36.5305 20.1877 37.0357 20.2329 37.541 20.3006C36.1375 20.5264 34.6778 21.0458 34.2287 21.5651Z" fill="#000001"/>
<path d="M41.0217 17.8613C39.8427 18.1775 37.3164 18.8323 36.0813 19.0807C34.8462 19.3517 35.0708 19.3742 33.162 19.1936C32.3761 19.1258 28.6708 18.7871 28.1655 18.7646C27.3234 18.7194 27.0989 18.742 27.0989 18.9C27.155 19.0355 27.2112 19.2388 27.2673 19.4646C27.3234 19.6678 27.4357 20.142 27.4357 20.5936C27.4357 20.7742 27.4919 20.9549 27.4919 21.0904C27.4919 21.3388 27.4357 21.542 27.7164 21.6549C27.7726 21.7 27.8848 21.7226 28.0533 21.7226C28.6147 21.7678 29.5691 21.4291 30.1866 21.2033C31.1971 20.8646 32.5445 20.3904 33.2743 20.1194C34.341 19.7807 34.8462 19.6678 35.2392 19.6226C35.2392 19.6226 35.5199 19.6 36.362 19.6678C36.8673 19.7129 37.4287 19.7807 38.1024 19.8484C39.6743 20.0291 40.7971 20.1646 41.3024 20.1194C41.8638 20.0742 41.6954 19.7807 41.6392 19.5323C41.5831 19.3517 41.5269 19.1033 41.5269 18.8097C41.4708 18.3807 41.5269 17.9065 41.5269 17.8613C41.5269 17.771 41.3024 17.7936 41.0217 17.8613Z" fill="#EC1C24"/>
<path d="M26.3692 26.9169C26.313 26.9395 26.2008 26.9621 26.1446 26.9847C26.0885 27.0072 26.0885 27.0072 26.0885 27.0298C26.0885 27.0524 26.1446 27.1201 26.1446 27.1427C25.9201 27.2105 25.8078 27.2556 25.6955 27.2556C25.3586 27.2782 25.4148 27.0976 25.4148 26.9847C25.4709 26.5105 25.8639 23.0782 25.8639 23.0782C25.8639 23.0782 25.7516 22.9879 25.6393 23.0105C25.2464 23.1008 23.9551 23.5072 23.506 23.6427C23.4499 23.6653 23.1692 26.7588 23.0008 27.8879C23.0008 27.9105 22.8323 27.7976 22.8323 27.8427C22.7762 27.9782 22.8323 28.3395 23.3937 28.4524C23.5622 28.4976 23.8429 28.4976 24.1797 28.475C24.3481 28.4524 24.5727 28.4298 24.7411 28.3847C25.6955 28.1588 26.3692 27.6621 26.4253 27.504C26.3692 27.3234 26.3692 27.0072 26.3692 26.9169C26.4253 26.9169 26.4253 26.9169 26.3692 26.9169Z" fill="#F58220"/>
<path d="M26.3692 21.8814C26.5937 21.2266 25.5271 21.2717 25.3025 21.3169C25.1902 21.3395 25.1341 21.4298 25.0218 21.4524C24.7411 21.5201 24.4042 21.6104 24.0674 21.7233C22.72 22.1298 21.8779 22.0169 21.8779 22.0169C22.2148 22.1298 22.3832 22.3104 22.6639 22.4685L22.6078 22.4911C22.8885 22.6717 23.5621 22.9427 24.5165 22.8524C25.5271 22.7846 26.2007 22.2879 26.3692 21.8814Z" fill="#F58220"/>
<path d="M22.327 23.8235C22.2709 23.8009 22.1586 23.8235 22.1586 23.8235C21.9341 23.8687 21.6533 24.0042 21.2604 24.1848C20.3621 24.6138 20.306 25.088 20.1376 25.3816C20.0814 25.3364 20.0253 25.2913 20.0253 25.2461C20.0814 24.9751 20.1376 24.6816 20.1937 24.4106C20.1376 24.388 20.0814 24.3654 20.0253 24.3429C19.3516 24.5687 18.6779 24.8171 18.0042 25.0654C18.0042 25.4493 17.8919 25.9461 17.8919 26.1945C17.6674 27.5042 17.4428 28.8138 17.2183 30.1009C17.2744 30.1235 17.3305 30.1461 17.3867 30.1461C18.1726 29.9203 18.9586 29.6945 19.6884 29.4913C19.8007 28.6784 19.913 27.8654 19.9691 27.0525C20.0814 26.0138 21.4849 25.2461 22.2148 25.0429C22.2148 25.0429 22.2148 24.9525 22.2709 24.8171C22.327 24.5913 22.4393 24.0267 22.4955 23.8461C22.4955 23.8687 22.4393 23.8461 22.327 23.8235Z" fill="#F58220"/>
<path d="M34.79 25.5395C34.79 25.5395 34.6216 25.5847 34.5093 25.5847C34.3971 25.6073 34.3971 25.6299 34.3971 25.6299C34.3971 25.6524 34.5093 25.7202 34.5093 25.7202C34.2848 25.7653 34.1725 25.8105 34.0602 25.8105C33.9479 25.8105 33.8918 25.7879 33.8357 25.7653C33.7795 25.7202 33.7795 25.675 33.7795 25.4041C33.8357 24.8621 33.8918 24.0944 33.9479 24.0718C34.0041 23.8234 34.0041 23.5976 34.0602 23.417C34.0602 23.2815 34.0602 23.1686 34.0602 23.0557C34.0602 22.9879 34.0041 22.9428 34.0041 22.875C33.8357 22.3331 33.2743 21.9492 32.3199 21.9492C32.1514 21.9492 32.0392 22.0395 31.8146 22.0847C30.9725 22.2202 30.2988 22.7847 29.962 23.2589C30.0181 23.1008 29.8497 23.3041 29.8497 23.146C29.8497 22.8976 29.962 22.2879 29.962 22.2879C29.9058 22.2653 29.8497 22.2428 29.7936 22.2428C29.7374 22.2202 29.7374 22.2202 29.6251 22.2428C29.176 22.3557 28.2778 22.6492 27.6602 22.7621C27.6602 23.2137 27.5479 23.8686 27.4918 24.0718C27.3795 24.975 26.8181 27.7524 26.8181 27.7524L26.9865 27.8202C27.7725 27.6621 28.5585 27.5041 29.3444 27.346C29.4567 26.3976 29.569 25.4492 29.6813 24.4783C29.7374 24.0266 30.5795 23.6879 31.1409 23.5976C31.2532 23.575 31.4778 23.575 31.59 23.7105C31.5339 24.4105 31.4216 25.1783 31.3655 25.7653C31.3093 25.9234 31.3093 26.0589 31.3093 26.1944C31.3093 26.217 31.3093 26.2395 31.3093 26.2621C31.3093 26.2847 31.1409 26.3299 31.1409 26.375C31.1409 26.3976 31.1409 26.4428 31.1971 26.4879C31.2532 26.6686 31.5339 26.9621 32.4883 26.9621C32.6567 26.9621 32.8813 26.9395 33.1058 26.917C34.0602 26.7589 34.79 26.3073 34.79 26.1718C34.7339 25.9008 34.79 25.5395 34.79 25.5395Z" fill="#F58220"/>
<path d="M58.6498 24.9075C58.8182 24.0043 57.2463 23.0107 56.7972 22.3333C56.6288 22.0849 56.6288 21.8591 56.741 21.6785C56.8533 21.5882 56.9656 21.5204 57.0779 21.4752C57.7516 21.272 58.5937 21.5656 58.6498 21.5882C58.706 21.5656 59.0428 21.114 59.0989 21.0236C59.0989 21.0236 58.9867 20.9559 58.7621 20.8882C58.5375 20.7978 58.2568 20.7075 58.0884 20.6623C57.8077 20.6172 57.4147 20.572 57.0217 20.572C56.2919 20.572 55.6744 20.6849 55.2253 20.8656C53.9902 21.3849 54.0463 22.1752 55.4498 23.2365C55.506 23.2817 55.4498 23.3494 55.5621 23.3946C56.2358 23.8914 56.9095 24.5011 56.4042 24.9301C56.2358 25.1107 55.7867 25.1785 55.1691 25.1107C54.2709 24.9978 52.9796 24.3882 52.9796 24.3656C52.8112 24.4559 52.0253 24.7946 51.2393 24.9301C51.1831 24.9301 51.1831 24.8849 51.1831 24.8398C51.1831 24.8398 50.8463 24.9075 50.4533 24.8849C49.8919 24.8623 49.3305 24.5914 49.2744 23.9591C49.2744 23.8688 49.2744 23.7785 49.2744 23.7107C50.734 23.643 51.8007 23.5301 53.0358 23.3946C53.2042 23.1236 53.541 22.3785 53.3726 21.7011C53.2603 21.272 53.0919 21.0011 52.6989 20.8204C52.2498 20.5946 51.5761 20.5043 51.0709 20.4817C50.9024 20.4817 50.341 20.4817 50.3972 20.4817C50.5095 20.5043 51.127 20.5494 51.0709 20.5494C50.6217 20.5269 50.1165 20.572 49.5551 20.6849C47.3656 21.1365 46.4674 23.0107 47.141 24.343C47.1972 24.4785 47.1972 24.5688 47.2533 24.6591C46.5235 24.9301 45.7937 25.1785 45.5691 24.9301C45.513 24.8849 45.513 24.8172 45.4568 24.7494C45.4568 24.6817 45.4568 24.5011 45.513 24.2752C45.5691 24.0043 46.1305 19.443 46.2428 18.7882C46.2428 18.7882 46.1305 18.7656 46.0744 18.743C46.0182 18.7204 45.9621 18.7204 45.906 18.7204C45.7375 18.6978 45.4568 18.6752 45.3445 18.6978C44.5024 18.7204 43.8849 18.9914 43.8288 19.5333C43.5481 21.2494 43.3235 22.9882 43.0428 24.7043C43.0428 24.7269 42.706 25.3817 43.4358 25.7656C43.6603 25.8785 43.9972 25.9688 44.4463 26.014C44.727 26.0365 45.0639 26.0365 45.4007 25.9914C46.5235 25.8333 47.4779 25.4494 47.8147 25.2011C47.9831 25.3365 48.3761 25.4946 48.7691 25.6075C49.4428 25.8333 50.341 25.9011 51.2954 25.8107C52.0253 25.7204 52.6428 25.5172 53.2603 25.2914C53.8779 25.4946 55.0568 25.8559 56.0112 25.9011C56.9656 25.9688 57.6954 25.8333 58.1446 25.6301C58.4253 25.4269 58.5937 25.1785 58.6498 24.9075ZM49.7796 21.9494C50.2849 21.3849 51.127 21.3398 51.2393 21.8365C51.2954 22.1075 51.2954 22.4688 51.127 22.8978C51.127 22.9204 51.127 22.9204 51.127 22.943C51.127 22.943 50.1726 23.1011 49.2182 23.1011C49.2182 22.7849 49.4428 22.3107 49.7796 21.9494ZM41.8638 20.7752C41.8638 20.7752 41.8077 20.7752 41.8077 20.7978C41.8077 20.8204 41.7516 20.843 41.7516 20.843C40.3481 20.7301 39.8428 21.114 39.7305 21.2269C39.2814 21.0236 38.2147 20.9785 37.2042 21.3172C36.8674 21.4301 36.5867 21.543 36.306 21.7236C35.52 22.2204 35.0709 22.9882 35.0147 23.7559C34.9586 24.6365 35.0709 25.2688 35.52 25.6978C35.9691 26.1494 36.6989 26.3752 37.4849 26.3978C39.0007 26.443 39.3375 25.8785 39.3375 25.9462C39.3375 26.8269 39.2814 27.3462 38.2147 27.5043C37.0358 27.6623 35.9691 27.3011 35.52 27.0527C35.52 27.0527 35.0709 27.2559 34.8463 27.3462C34.6217 27.4817 34.5656 27.572 34.8463 27.7301C35.6884 28.2043 37.2042 28.4075 38.5516 28.3398C39.0007 28.3172 39.506 28.2494 39.9551 28.114C40.9656 27.7978 41.3586 27.4365 41.4147 26.1494C41.4147 25.8333 41.4147 25.4946 41.4709 25.1107C41.5831 23.8914 41.8077 22.1752 41.92 21.4978C41.9761 21.1365 42.0323 20.8882 42.0323 20.8882C42.0323 20.843 41.92 20.7978 41.8638 20.7752ZM39.2253 24.7946C39.1691 24.9527 39.113 25.1107 39.0007 25.2462C38.1586 26.0365 37.2603 25.314 37.3165 23.8011C37.3726 22.9204 37.934 22.243 38.4393 22.0398C38.7761 21.9043 39.4498 21.7688 39.5621 22.2204C39.5621 22.6494 39.2814 24.5462 39.2253 24.7946Z" fill="#F58220"/>
<path d="M17.0498 24.9528C17.0498 24.7044 16.9936 24.4786 16.8813 24.298C16.4884 23.6657 15.534 23.3496 14.2427 23.3496C13.2322 23.3496 12.2778 23.5754 11.4357 23.8012C10.3129 24.0948 9.30239 24.5238 8.57256 24.8399C8.51642 24.8625 8.85326 24.8851 8.74098 25.7883C8.51642 27.5948 8.17958 31.1174 7.95502 32.4722C7.95502 32.5174 7.7866 32.5174 7.73046 32.5851C7.73046 32.6077 7.73046 32.6303 7.67432 32.6528C7.67432 32.7206 7.67432 32.8786 7.7866 32.969C7.89888 33.0141 8.01116 33.0367 8.23572 33.0141C8.51642 32.969 8.79712 32.8786 9.13397 32.7432C9.75151 32.5625 10.5375 32.2915 10.5375 32.2915C10.5375 32.2238 10.5375 31.8174 10.5375 31.6593C10.5936 31.0948 10.762 30.1238 10.8743 29.3786C14.2427 28.5206 17.1059 26.9174 17.0498 24.9528ZM13.0638 27.2786C12.5024 27.8432 11.7726 28.1593 11.155 28.3625C11.2112 27.8883 11.4357 25.3593 11.4919 24.8399C11.9971 24.6141 12.6147 24.4561 13.0638 24.4335C14.4673 24.4561 14.1866 26.1044 13.0638 27.2786Z" fill="#F58220"/>
<path d="M26.0882 27.0075C26.032 27.0301 25.9759 27.0527 25.9759 27.0527C25.8636 27.0978 25.6391 27.1656 25.5268 27.1882C25.4706 27.2107 25.3583 27.2107 25.3022 27.1882C25.1338 27.1656 25.1899 27.0075 25.1899 26.9172C25.2461 26.443 25.6391 23.0107 25.6391 23.0107C25.6391 23.0107 23.8426 23.4172 23.2812 23.5753C23.225 23.5978 22.9443 26.6914 22.7759 27.8204C22.7198 28.0688 22.8882 28.272 23.1689 28.3624C23.5057 28.4527 24.011 28.4301 24.5162 28.3172C25.4706 28.0914 26.1443 27.5946 26.2005 27.4365C26.2005 27.2333 26.2566 27.0075 26.2566 26.9849C26.1443 26.9849 26.1443 26.9849 26.0882 27.0075Z" fill="url(#paint0_linear_69_892)"/>
<path d="M26.1445 21.5875C26.0884 21.452 25.9761 21.3617 25.8077 21.3165C25.5831 21.2714 25.2463 21.2939 24.7972 21.3843C24.5165 21.452 24.1796 21.5423 23.8428 21.6552C22.4954 22.0617 21.6533 21.9488 21.6533 21.9488C21.9902 22.0617 22.1586 22.2423 22.4393 22.4004C22.72 22.6036 23.2814 22.8746 24.2919 22.7843C25.4709 22.6939 26.2568 22.0165 26.1445 21.5875Z" fill="url(#paint1_linear_69_892)"/>
<path d="M21.0917 24.117C21.0917 24.1396 21.0355 24.1396 21.0355 24.1396C20.418 24.4557 20.1373 24.817 19.8005 25.5396C19.8566 25.1332 19.9689 24.7493 20.025 24.3428C19.2952 24.5686 18.5092 24.7719 17.7794 24.9977C17.7794 25.3815 17.6671 25.8783 17.6671 26.1267C17.4987 27.459 17.3303 28.7686 17.1619 30.1009C17.9478 29.8751 18.7338 29.6493 19.4636 29.4461C19.5759 28.6332 19.6882 27.8203 19.8005 27.0074C19.9127 25.9686 21.3163 25.2009 22.0461 24.9977C22.0461 24.9977 22.0461 24.9074 22.1022 24.7719C22.1584 24.5461 22.2706 23.9815 22.3268 23.8009C22.3268 23.7783 21.7092 23.8235 21.0917 24.117Z" fill="url(#paint2_linear_69_892)"/>
<path d="M34.5093 25.5848C34.397 25.6074 34.0602 25.6977 34.0041 25.6977C33.8918 25.7203 33.7795 25.7203 33.6672 25.6977C33.4988 25.6526 33.5549 25.5171 33.5549 25.4268C33.5549 25.4042 33.5549 25.359 33.5549 25.3139C33.6111 24.7719 33.6672 24.0042 33.7234 23.9816C33.7795 23.7332 33.7795 23.5074 33.8356 23.3268C33.8356 23.1913 33.8356 23.0784 33.8356 22.9655C33.8356 22.8977 33.8356 22.8526 33.7795 22.7848C33.6111 22.288 33.1058 21.9268 32.2637 21.9268C32.0953 21.9268 31.8707 21.9493 31.59 21.9719C30.8602 22.0848 30.2427 22.559 29.8497 23.0106C29.8497 23.0332 29.6812 23.1913 29.6251 23.259C29.569 23.3268 29.569 23.3042 29.569 23.259C29.6251 22.9429 29.6812 22.3558 29.6812 22.2203C29.6812 22.1977 29.6812 22.1977 29.6251 22.1977C29.4567 22.2429 29.176 22.288 29.0637 22.3106C28.3339 22.4687 27.1549 22.7171 27.1549 22.7171C27.3795 22.8074 27.3795 23.0332 27.3234 23.2364C27.2672 23.5526 27.2111 23.8461 27.2111 23.959C27.0988 24.9751 26.7058 27.7074 26.7058 27.7074C27.4918 27.5493 28.2777 27.3913 29.0637 27.2332C29.176 26.2848 29.2883 25.3364 29.4005 24.3655C29.4567 23.9139 30.2988 23.5751 30.8602 23.4848C30.9725 23.4622 31.197 23.4622 31.3093 23.5977C31.2532 24.2977 31.1409 25.0655 31.0848 25.6526C31.0286 25.8106 31.0286 25.9461 31.0286 26.0816C31.0286 26.1042 31.0286 26.1268 31.0286 26.1493C30.9725 26.3977 31.1409 26.6235 31.4216 26.7139C31.7584 26.8493 32.2637 26.8493 32.769 26.7816C33.7234 26.6235 34.4532 26.1719 34.4532 26.0364C34.4532 25.8784 34.5093 25.6751 34.5093 25.5848C34.5655 25.5848 34.5655 25.5848 34.5093 25.5848Z" fill="url(#paint3_linear_69_892)"/>
<path d="M58.369 24.2749C58.3128 24.162 58.2567 24.0717 58.1444 23.9588C57.4707 23.1459 56.1233 22.1975 56.5163 21.6782C56.5725 21.5653 56.7409 21.4749 56.9093 21.4298C57.583 21.2266 58.4251 21.5201 58.4812 21.5427C58.5374 21.4975 58.9865 20.9556 58.9865 20.9556C58.5935 20.7749 57.8637 20.5266 56.8532 20.5266C56.1233 20.5266 55.5058 20.6395 55.0567 20.8201C54.1023 21.204 53.9339 21.7685 54.4953 22.4685C54.9444 23.0104 56.1795 23.8459 56.3479 24.3653C56.404 24.5459 56.404 24.7266 56.2356 24.862C56.0672 25.0427 55.6181 25.1104 55.0005 25.0427C54.1023 24.9298 52.8111 24.2975 52.8111 24.2749C52.4742 24.433 50.3409 25.4266 49.3865 24.4782C49.1058 24.2072 49.1058 23.8459 49.1058 23.6201C50.5654 23.5524 51.6321 23.4395 52.8672 23.304C53.0918 22.9201 53.6532 21.5201 52.5865 20.8653C52.1935 20.6169 51.5198 20.4814 50.79 20.4814C50.3409 20.4588 49.8356 20.504 49.2742 20.6169C47.0847 21.0685 46.1865 22.9427 46.8602 24.2749C46.9163 24.3878 46.9163 24.5007 46.9725 24.5911C46.2426 24.862 45.5128 25.1104 45.2883 24.862C45.2321 24.8169 45.2321 24.7491 45.2321 24.6814C45.2321 24.6136 45.2321 24.433 45.2883 24.2072C45.3444 23.9136 46.0181 18.7653 46.0181 18.7653C45.9619 18.7653 45.9058 18.7427 45.8497 18.7427C44.6146 18.6072 43.6602 18.7653 43.5479 19.4427C43.3233 21.1136 43.0988 22.762 42.9304 24.433C42.9304 24.7266 42.5935 25.5395 43.604 25.833C44.1093 25.9685 44.7268 25.9685 45.2883 25.8782C45.6251 25.8104 45.9619 25.7201 46.2988 25.6298C47.0847 25.3814 47.5339 25.1104 47.5339 25.1104C47.5339 25.133 47.59 25.133 47.59 25.133C47.9268 25.3362 48.6005 25.6072 49.2742 25.6975C49.5549 25.7427 49.8918 25.7427 50.1725 25.7427C51.2953 25.7653 52.1374 25.4717 52.9795 25.2007C53.597 25.4266 54.4953 25.6749 55.2251 25.7653C56.4602 25.9233 57.4146 25.7878 57.9198 25.562C58.5935 25.2007 58.5374 24.5911 58.369 24.2749ZM49.5549 21.8814C50.0602 21.3169 50.9023 21.2717 51.0146 21.7685C51.0707 22.0395 51.0707 22.4007 50.9023 22.8298C50.9023 22.8524 50.9023 22.8524 50.9023 22.8749C50.9023 22.8749 49.9479 23.033 48.9935 23.033C48.9935 22.7169 49.2181 22.2427 49.5549 21.8814Z" fill="url(#paint4_linear_69_892)"/>
<path d="M41.6954 20.7522C40.1796 20.6167 39.6743 21.0005 39.5059 21.136C39.0568 20.9328 37.9901 20.8876 36.9796 21.2263C36.6428 21.3392 36.3621 21.4747 36.0814 21.6328C35.2954 22.1296 34.8463 22.8973 34.7901 23.6651C34.6778 25.3134 35.7445 26.1941 36.9796 26.2844C38.327 26.3747 38.8884 26.0586 39.1691 25.8328C39.1691 25.8102 39.1691 25.8328 39.1691 25.8554C39.1691 26.4876 39.1129 26.9392 38.72 27.1876C38.327 27.436 37.4287 27.5038 36.5866 27.3457C36.0814 27.2328 35.6322 27.0747 35.4077 26.9392C35.4077 26.9392 34.9024 27.1425 34.6778 27.2554C34.4533 27.3909 34.3971 27.4812 34.6778 27.6392C35.6322 28.1812 37.4849 28.3618 38.9445 28.2038C41.6393 27.9102 41.134 26.4876 41.3024 25.1328C41.4147 23.9134 41.6393 22.107 41.7515 21.407C41.8077 21.0457 41.8638 20.7973 41.8638 20.7973C41.8077 20.7522 41.7515 20.7522 41.6954 20.7522ZM39.0568 24.7038C39.0007 24.8618 38.9445 25.0199 38.8322 25.1554C37.9901 25.9457 37.0919 25.2231 37.148 23.7102C37.2042 22.8296 37.7656 22.1522 38.2708 21.9489C38.6077 21.8134 39.2814 21.678 39.3936 22.1296C39.3936 22.5812 39.0568 24.478 39.0568 24.7038Z" fill="url(#paint5_linear_69_892)"/>
<path d="M16.8813 24.8848C16.8813 24.1848 16.376 23.6655 15.4216 23.4397C13.962 23.1009 12.1655 23.4622 11.2672 23.7106C10.1444 24.0042 9.1339 24.4332 8.40408 24.7493C8.34794 24.7719 8.68478 24.7945 8.5725 25.6977C8.34794 27.5945 7.95496 31.388 7.78653 32.5848C7.73039 33.1042 8.06724 33.0138 9.52688 32.5397C10.0321 32.3816 10.4813 32.2235 10.4813 32.2235C10.4813 32.2235 10.4813 31.7493 10.4813 31.5913C10.5374 31.0267 10.7058 30.0558 10.8181 29.3106C14.0181 28.4751 16.8813 26.8493 16.8813 24.8848ZM12.8392 27.2106C12.2778 27.7751 11.5479 28.0913 10.9304 28.2945C10.9865 27.8203 11.2111 25.2913 11.2672 24.7719C11.7725 24.5461 12.39 24.388 12.8392 24.3655C14.2427 24.388 14.0181 26.059 12.8392 27.2106Z" fill="url(#paint6_linear_69_892)"/>
<path d="M24.5164 28.3176L24.4603 28.3402C23.955 28.4531 23.4498 28.4757 23.1129 28.3853C22.8884 28.3176 22.6638 28.1144 22.7199 27.8434C22.8884 26.7144 23.2252 23.5982 23.2252 23.5982C23.3375 23.5531 23.5059 23.5305 23.6743 23.4628C23.6182 23.7563 23.3375 26.6015 23.1691 27.6853C23.1691 27.7079 23.1691 27.7531 23.1691 27.7757V27.7982C23.1691 28.024 23.3375 28.2047 23.562 28.2724C23.8427 28.3402 24.1796 28.3628 24.5164 28.3176ZM22.8884 22.3337C22.7199 22.2208 22.5515 22.0628 22.327 21.9724C21.8778 22.0176 21.5971 21.9724 21.5971 21.9724C21.934 22.0853 22.1024 22.266 22.3831 22.424C22.6638 22.6047 23.2252 22.8982 24.2357 22.8079C24.4603 22.7853 24.6287 22.7628 24.7971 22.695C24.741 22.695 24.741 22.695 24.6849 22.7176C23.7305 22.7853 23.2252 22.5144 22.8884 22.3337ZM21.541 23.9821C21.541 23.9595 21.5971 23.9595 21.5971 23.9595C21.6533 23.937 21.7094 23.9144 21.7656 23.8918C21.5971 23.937 21.3164 24.0273 21.0919 24.1176C21.0919 24.1402 21.0357 24.1402 21.0357 24.1402C20.9235 24.2079 20.8112 24.2757 20.6989 24.3434C20.362 24.5918 20.1375 24.8853 19.9691 25.224C19.8568 25.3821 19.8568 25.5176 19.8568 25.5176C19.8568 25.5176 19.8006 25.6305 19.8006 25.6531C20.0813 25.337 20.5866 24.4789 21.541 23.9821ZM17.6673 29.7853C17.8357 28.5208 17.948 27.2563 18.1164 25.9918C18.1726 25.7434 18.2287 25.2692 18.2287 24.8853C18.0603 24.9305 17.8919 24.9757 17.7234 25.0208C17.7234 25.4047 17.6112 25.9015 17.6112 26.1499C17.4427 27.4821 17.2743 28.7918 17.1059 30.124C17.2743 30.0789 17.4427 30.0337 17.555 29.9886C17.6112 29.9886 17.6673 29.8305 17.6673 29.7853ZM31.5901 21.995C31.0287 22.0853 30.5796 22.3789 30.1866 22.695C30.0182 22.8757 29.7936 23.0789 29.6252 23.2821V23.3724C30.0743 22.9208 31.0849 22.1982 31.5901 21.995ZM31.9831 26.6466C31.7585 26.5563 31.5901 26.3531 31.5901 26.1273V26.1047C31.5901 26.0821 31.5901 26.037 31.5901 26.0144C31.5901 25.9918 31.5901 25.9692 31.5901 25.9466C31.5901 25.8111 31.6463 25.6757 31.6463 25.5176C31.7024 24.9531 31.8147 24.2079 31.8708 23.5305V23.5079C31.7024 23.3724 31.0287 23.4853 30.9164 23.5305C31.0287 23.5079 31.141 23.5079 31.1971 23.5305C31.2533 23.5531 31.3094 23.5757 31.3656 23.6208C31.3094 24.3208 31.1971 25.0886 31.141 25.6757C31.0849 25.8337 31.0849 25.9692 31.0849 26.1047C31.0849 26.1273 31.0849 26.1499 31.0849 26.1724C31.0287 26.4208 31.1971 26.6466 31.4778 26.737C31.8147 26.8724 32.3199 26.8724 32.8252 26.8047C32.8813 26.7821 32.9936 26.7821 33.0498 26.7595C32.6568 26.7821 32.2638 26.7595 31.9831 26.6466ZM27.3796 27.3692C27.4919 26.7144 27.7164 24.6821 27.8287 23.824C27.8849 23.7111 27.8849 23.4176 27.941 23.1015C27.941 23.0563 27.941 23.0337 27.941 22.9886C27.941 22.8531 27.8849 22.7176 27.7726 22.6499L27.7164 22.6273C27.4357 22.695 27.2673 22.7176 27.2673 22.7402C27.4919 22.8305 27.4919 23.0563 27.4357 23.2595C27.3796 23.5757 27.3234 23.8692 27.3234 23.9821C27.2112 24.9982 26.8182 27.7305 26.8182 27.7305C26.9866 27.7079 27.155 27.6628 27.2673 27.6402C27.3234 27.6176 27.3235 27.4821 27.3796 27.3692ZM47.2533 23.9144C47.141 23.5531 47.141 23.1015 47.1971 22.7628C47.3656 21.8144 48.2077 20.9111 49.555 20.5499C49.4989 20.5724 49.3866 20.5724 49.3305 20.595C47.5901 20.9563 46.6919 22.1531 46.6919 23.3047C46.6919 23.824 46.8041 24.1853 47.0287 24.5692C47.1971 24.524 47.4217 24.4563 47.4778 24.4337C47.4217 24.4337 47.3094 24.2079 47.2533 23.9144ZM55.6182 25.7208C54.9445 25.6305 54.0463 25.4047 53.4287 25.1789L53.2041 25.1111C53.0919 25.1563 53.0357 25.1789 52.9234 25.2015C52.9234 25.2015 53.0919 25.2692 53.148 25.2692C53.7656 25.4724 54.5515 25.6757 55.1691 25.766C55.8989 25.8563 56.4603 25.8563 56.9656 25.7886C56.5726 25.8111 56.1234 25.7886 55.6182 25.7208ZM44.0533 25.766C43.3796 25.5853 43.3234 25.2015 43.3234 24.8628C43.3234 24.8402 43.3234 24.8402 43.3234 24.8176C43.3234 24.6144 43.3796 24.4337 43.3796 24.2982C43.6041 22.6273 43.8287 20.9789 43.9971 19.3079C44.0533 19.0144 44.2217 18.8111 44.5585 18.6982C43.9971 18.766 43.548 18.9918 43.548 19.4208C43.3234 21.0918 43.0989 22.7402 42.9305 24.4111C42.9305 24.7047 42.5936 25.5176 43.6041 25.8111C44.0533 25.9466 44.6708 25.9692 45.1761 25.8789C44.7831 25.9015 44.3901 25.8563 44.0533 25.766ZM58.5375 21.3402C57.8638 21.2047 57.3024 21.295 56.9094 21.4531C56.9094 21.4531 57.134 21.3628 57.527 21.3628C58.0322 21.3628 58.4813 21.5208 58.5375 21.5434C58.5375 21.5208 58.5936 21.4757 58.6498 21.3853C58.6498 21.3628 58.5936 21.3402 58.5375 21.3402ZM50.6778 21.4531C50.8463 21.4982 50.9585 21.5886 51.0147 21.7692C51.0708 22.0402 51.0708 22.4015 50.9024 22.8079C50.9024 22.8079 50.8463 22.8531 50.8463 22.8757C51.127 22.8531 51.2954 22.8079 51.2954 22.8079C51.2954 22.7853 51.3515 22.7402 51.3515 22.7402C51.4638 22.4918 51.5199 22.2886 51.5199 22.0853C51.5199 21.9499 51.5199 21.837 51.4638 21.7466C51.4077 21.5886 51.2954 21.4757 51.127 21.4305C50.9585 21.3628 50.6217 21.3853 50.2849 21.4531C50.5656 21.4079 50.6778 21.4531 50.6778 21.4531ZM49.7234 25.6531C49.2182 25.5853 48.7691 25.4273 48.3761 25.2692C48.0392 25.1337 47.8708 24.9982 47.8147 24.9757C47.7585 24.9982 47.6463 25.0434 47.4778 25.1111C47.5901 25.2015 47.7024 25.2466 47.927 25.337C48.2638 25.495 48.7691 25.6305 49.2182 25.6982C49.4989 25.7434 49.8357 25.7434 50.1164 25.7434C50.3971 25.7434 50.6778 25.7208 50.9585 25.6982C50.8463 25.6982 50.6778 25.6982 50.5656 25.6982C50.341 25.6982 50.0042 25.6982 49.7234 25.6531ZM56.741 24.7499C56.8533 24.6595 56.9094 24.5466 56.9094 24.4563C56.9094 24.2757 56.7971 24.095 56.6287 23.9144C56.5164 23.8015 55.6743 23.1015 55.3375 22.7402C54.8884 22.3111 54.6638 21.995 54.6638 21.7015C54.6638 21.1821 55.0006 20.9337 55.4498 20.7305C55.5059 20.7079 55.7305 20.6402 55.7305 20.6176C55.5059 20.6628 55.2813 20.7305 55.1129 20.7982C54.1024 21.2047 53.934 21.8144 54.6638 22.6047C55.3936 23.3724 56.9094 24.2757 56.2357 24.8628C56.1796 24.9079 56.0112 25.066 55.4498 25.066C55.8989 25.066 56.4603 24.9757 56.741 24.7499ZM38.5515 27.2789C39.2813 27.0982 39.4498 26.8499 39.562 26.3982C39.6182 26.2176 39.562 25.5628 39.562 25.5853C39.4498 25.6531 39.3375 25.7434 39.1129 25.8563C39.1129 25.8789 39.1129 26.1047 39.1129 26.1273C39.1129 26.2628 39.1129 26.4208 39.0568 26.5337C39.0006 26.7821 38.8884 27.0757 38.4954 27.2563C38.3831 27.3015 38.327 27.324 38.1585 27.3692C38.1024 27.3918 37.9901 27.4144 37.8778 27.4144C38.1585 27.3692 38.327 27.324 38.5515 27.2789ZM40.4042 20.7757C40.2357 20.7982 40.1234 20.8434 39.955 20.866C39.562 21.0015 39.4498 21.137 39.4498 21.137C39.4498 21.137 39.562 21.1821 39.6743 21.2724C39.7866 21.1144 40.1234 20.8434 40.4042 20.7757ZM35.1831 27.5273C35.0147 27.437 34.9585 27.3692 35.0147 27.3015C35.0147 27.2789 35.0147 27.2789 35.0147 27.2789C35.0147 27.2111 35.0708 27.166 35.1831 27.0982C35.2392 27.0531 35.3515 27.0079 35.4638 26.9628C35.4077 26.9402 35.4077 26.9402 35.4077 26.9176C35.4077 26.9176 34.9024 27.1208 34.6778 27.2337C34.4533 27.3692 34.3971 27.4595 34.6778 27.6176C35.6322 28.1595 37.4849 28.3402 38.9445 28.1821C39.0568 28.1595 39.1691 28.1595 39.2813 28.137C37.8778 28.2499 36.0813 28.0692 35.1831 27.5273ZM37.4287 26.2176C36.2498 26.1273 35.2392 25.337 35.2392 23.8692V23.8466C35.2392 23.7563 35.2392 23.6434 35.2392 23.5531C35.2954 22.7853 35.7445 22.0176 36.5305 21.5208C36.8112 21.3628 37.0919 21.2273 37.4287 21.1144C37.4287 21.1144 37.4287 21.1144 37.4848 21.1144C37.3164 21.1595 37.148 21.1821 36.9796 21.2499C36.6427 21.3628 36.362 21.4757 36.0813 21.6563C35.2954 22.1531 34.8463 22.9208 34.7901 23.6886C34.6778 25.337 35.7445 26.2176 36.9796 26.3079C37.541 26.3531 37.934 26.3079 38.2708 26.2402C38.0463 26.2176 37.7656 26.2176 37.4287 26.2176ZM39.7866 22.1079C39.7305 21.9499 39.6743 21.8595 39.5059 21.8144C39.1691 21.724 38.6077 21.837 38.4392 21.9047C38.6077 21.8595 38.6638 21.8595 38.7761 21.8595C38.8322 21.8595 38.8884 21.8595 38.9445 21.8821C39.1129 21.9047 39.2813 21.995 39.2813 22.1757C39.3375 22.5821 39.0568 24.4789 39.0006 24.7273C38.9445 24.8853 38.8884 25.0434 38.7761 25.1789C38.7199 25.224 38.6638 25.2918 38.6077 25.3144C38.5515 25.3595 38.4954 25.4047 38.4392 25.4273C38.3831 25.4499 38.327 25.4724 38.2708 25.4724C38.5515 25.4499 38.9445 25.337 39.2252 25.1337C39.2813 25.1111 39.2813 25.066 39.3375 25.0434C39.4498 24.9079 39.562 24.7499 39.562 24.5918C39.6182 24.3886 39.8427 22.8305 39.8427 22.2208C39.7866 22.1757 39.7866 22.1305 39.7866 22.1079ZM12.8392 27.2111C12.5585 27.4821 12.2778 27.7079 11.941 27.8886C11.7164 28.0015 11.4919 28.1144 11.155 28.2273C11.0989 28.2499 10.9866 28.2724 10.9305 28.295V28.3402C11.6042 28.1595 12.6708 27.7079 13.2884 27.0982C14.4112 25.924 14.6357 24.2757 13.2884 24.2757C13.0077 24.2757 12.6708 24.3434 12.334 24.4563C12.5024 24.4111 12.727 24.3886 12.8392 24.3886C14.2427 24.3886 14.0182 26.0595 12.8392 27.2111ZM8.17959 32.495C8.34801 31.2757 8.74099 27.5047 8.96556 25.6079C9.07784 24.7047 8.79714 24.6821 8.79714 24.6595C9.47082 24.3434 10.4252 23.9595 11.4919 23.666C11.3796 23.6886 11.3235 23.7111 11.2112 23.7337C10.0884 24.0273 9.07784 24.4563 8.34801 24.7724C8.29187 24.795 8.62871 24.8176 8.51643 25.7208C8.29187 27.6176 7.89889 31.4111 7.73047 32.6079C7.73047 32.766 7.73047 32.8563 7.78661 32.924C7.95503 33.0595 8.57257 32.8563 8.96556 32.7434C8.23573 32.9015 8.12345 32.9015 8.17959 32.495Z" fill="#FFFBC8"/>
</g>
<defs>
<linearGradient id="paint0_linear_69_892" x1="18.5687" y1="17.5281" x2="20.0649" y2="31.6001" gradientUnits="userSpaceOnUse">
<stop offset="0.4945" stop-color="#FFEA00"/>
<stop offset="0.7088" stop-color="#FFDD00"/>
<stop offset="0.8681" stop-color="#FFCB05"/>
<stop offset="1" stop-color="#FFD400"/>
</linearGradient>
<linearGradient id="paint1_linear_69_892" x1="20.9625" y1="17.5812" x2="22.402" y2="31.1197" gradientUnits="userSpaceOnUse">
<stop offset="0.4945" stop-color="#FFEA00"/>
<stop offset="0.7088" stop-color="#FFDD00"/>
<stop offset="0.8681" stop-color="#FFCB05"/>
<stop offset="1" stop-color="#FFD400"/>
</linearGradient>
<linearGradient id="paint2_linear_69_892" x1="13.3311" y1="17.8687" x2="15.0814" y2="33.2148" gradientUnits="userSpaceOnUse">
<stop offset="0.4945" stop-color="#FFEA00"/>
<stop offset="0.7088" stop-color="#FFDD00"/>
<stop offset="0.8681" stop-color="#FFCB05"/>
<stop offset="1" stop-color="#FFD400"/>
</linearGradient>
<linearGradient id="paint3_linear_69_892" x1="24.2886" y1="16.6189" x2="25.7998" y2="30.832" gradientUnits="userSpaceOnUse">
<stop offset="0.4945" stop-color="#FFEA00"/>
<stop offset="0.7088" stop-color="#FFDD00"/>
<stop offset="0.8681" stop-color="#FFCB05"/>
<stop offset="1" stop-color="#FFD400"/>
</linearGradient>
<linearGradient id="paint4_linear_69_892" x1="44.523" y1="13.9197" x2="46.2597" y2="31.0166" gradientUnits="userSpaceOnUse">
<stop offset="0.4945" stop-color="#FFEA00"/>
<stop offset="0.7088" stop-color="#FFDD00"/>
<stop offset="0.8681" stop-color="#FFCB05"/>
<stop offset="1" stop-color="#FFD400"/>
</linearGradient>
<linearGradient id="paint5_linear_69_892" x1="32.6574" y1="16.1766" x2="34.0427" y2="29.8148" gradientUnits="userSpaceOnUse">
<stop offset="0.4945" stop-color="#FFEA00"/>
<stop offset="0.7088" stop-color="#FFDD00"/>
<stop offset="0.8681" stop-color="#FFCB05"/>
<stop offset="1" stop-color="#FFD400"/>
</linearGradient>
<linearGradient id="paint6_linear_69_892" x1="4.75535" y1="23.0269" x2="7.33997" y2="34.7597" gradientUnits="userSpaceOnUse">
<stop offset="0.4945" stop-color="#FFEA00"/>
<stop offset="0.7088" stop-color="#FFDD00"/>
<stop offset="0.8681" stop-color="#FFCB05"/>
<stop offset="1" stop-color="#FFD400"/>
</linearGradient>
<clipPath id="clip0_69_892">
<rect width="64" height="35" fill="white" transform="translate(0.600586)"/>
</clipPath>
</defs>
</svg>
